<svg width="172" height="172" viewBox="0 0 172 172" fill="none" xmlns="http://www.w3.org/2000/svg">
<path d="M169.133 83.1333H163.328C161.846 42.7334 129.267 10.1537 88.8667 8.67167V2.86667C88.8667 1.2814 87.5853 0 86 0C84.4147 0 83.1333 1.2814 83.1333 2.86667V8.67167C42.7334 10.1537 10.1537 42.7334 8.67167 83.1333H2.86667C1.2814 83.1333 0 84.4147 0 86C0 87.5853 1.2814 88.8667 2.86667 88.8667H8.67167C10.1537 129.267 42.7334 161.846 83.1333 163.328V169.133C83.1333 170.719 84.4147 172 86 172C87.5853 172 88.8667 170.719 88.8667 169.133V163.328C129.267 161.846 161.846 129.267 163.328 88.8667H169.133C170.719 88.8667 172 87.5853 172 86C172 84.4147 170.719 83.1333 169.133 83.1333ZM88.8667 157.595V151.933C88.8667 150.348 87.5853 149.067 86 149.067C84.4147 149.067 83.1333 150.348 83.1333 151.933V157.595C45.8953 156.119 15.8813 126.105 14.405 88.8667H20.0667C21.6519 88.8667 22.9333 87.5853 22.9333 86C22.9333 84.4147 21.6519 83.1333 20.0667 83.1333H14.405C15.8813 45.8953 45.8953 15.8813 83.1333 14.405V20.0667C83.1333 21.6519 84.4147 22.9333 86 22.9333C87.5853 22.9333 88.8667 21.6519 88.8667 20.0667V14.405C126.105 15.8813 156.119 45.8953 157.595 83.1333H151.933C150.348 83.1333 149.067 84.4147 149.067 86C149.067 87.5853 150.348 88.8667 151.933 88.8667H157.595C156.119 126.105 126.105 156.119 88.8667 157.595Z" fill="white"/>
</svg>
