<svg width="60" height="60" viewBox="0 0 60 60" fill="none" xmlns="http://www.w3.org/2000/svg">
<path d="M15.9375 50.6252H14.8706C15.5662 49.5613 15.9369 48.3178 15.9375 47.0467V44.6889C15.9379 44.1705 15.8521 43.6557 15.6834 43.1655L12.7837 34.7345C12.6595 34.271 12.419 33.8469 12.085 33.5023C11.7509 33.1578 11.3345 32.9043 10.875 32.7658L12.6422 26.163C12.7969 25.6033 12.7724 25.0093 12.5724 24.4642C12.3723 23.9191 12.0066 23.4503 11.5266 23.1236C11.2716 22.9405 10.9858 22.8046 10.6828 22.7223C10.4391 22.652 10.1865 22.6169 9.93281 22.6183C9.32032 22.6126 8.72307 22.8093 8.23383 23.1778C7.74459 23.5463 7.39072 24.0661 7.22719 24.6564L2.22469 40.0314C1.97293 40.8132 1.92899 41.6471 2.09719 42.4511L3.54281 48.0686C3.68008 48.6015 3.74969 49.1496 3.75 49.6998V50.6252H2.8125C2.56386 50.6252 2.3254 50.7239 2.14959 50.8997C1.97377 51.0756 1.875 51.314 1.875 51.5627V57.1877C1.875 57.4363 1.97377 57.6748 2.14959 57.8506C2.3254 58.0264 2.56386 58.1252 2.8125 58.1252H15.9375C16.1861 58.1252 16.4246 58.0264 16.6004 57.8506C16.7762 57.6748 16.875 57.4363 16.875 57.1877V51.5627C16.875 51.314 16.7762 51.0756 16.6004 50.8997C16.4246 50.7239 16.1861 50.6252 15.9375 50.6252ZM5.35875 47.597L3.92437 42.0292C3.82967 41.5559 3.85841 41.0661 4.00781 40.607L9.02625 25.1814C9.05813 25.0632 9.11313 24.9525 9.18807 24.8556C9.26301 24.7588 9.35641 24.6778 9.46286 24.6173C9.56931 24.5568 9.6867 24.518 9.80824 24.5031C9.92978 24.4883 10.0531 24.4977 10.1709 24.5308C10.2745 24.5575 10.3719 24.604 10.4578 24.6677C10.6187 24.7755 10.7415 24.9313 10.8088 25.1128C10.8761 25.2944 10.8845 25.4926 10.8328 25.6792L8.89687 32.9064C8.40638 33.1276 7.99045 33.4862 7.69931 33.9387C7.40817 34.3912 7.25429 34.9183 7.25625 35.4564C7.2526 35.7025 7.28417 35.9477 7.35 36.1848L9.04687 42.5242C9.11127 42.7644 9.26845 42.9692 9.48382 43.0935C9.69919 43.2178 9.95513 43.2514 10.1953 43.187C10.4355 43.1226 10.6403 42.9655 10.7646 42.7501C10.8889 42.5347 10.9225 42.2788 10.8581 42.0386L9.15844 35.6777C9.13889 35.6056 9.12974 35.5311 9.13125 35.4564C9.12944 35.264 9.18862 35.0761 9.30029 34.9194C9.41195 34.7628 9.57037 34.6455 9.75281 34.5845C9.77437 34.577 9.86344 34.547 9.8775 34.5442C10.123 34.4958 10.3778 34.5462 10.5863 34.6845C10.7949 34.8229 10.9404 35.0379 10.9912 35.283L13.9097 43.7758C14.011 44.0695 14.0627 44.3782 14.0625 44.6889V47.0467C14.0633 47.9724 13.7892 48.8776 13.275 49.6473L12.6234 50.6252H5.625V49.6998C5.62468 48.9905 5.53523 48.2841 5.35875 47.597ZM15 56.2502H3.75V52.5002H15V56.2502Z" fill="#222222"/>
<path d="M43.125 51.5623V57.1873C43.125 57.4359 43.2238 57.6744 43.3996 57.8502C43.5754 58.026 43.8139 58.1248 44.0625 58.1248H57.1875C57.4361 58.1248 57.6746 58.026 57.8504 57.8502C58.0262 57.6744 58.125 57.4359 58.125 57.1873V51.5623C58.125 51.3137 58.0262 51.0752 57.8504 50.8994C57.6746 50.7236 57.4361 50.6248 57.1875 50.6248H56.25V49.6995C56.2499 49.1476 56.3195 48.598 56.4572 48.0636L57.9028 42.446C58.071 41.6421 58.0271 40.8082 57.7753 40.0264L52.7728 24.656C52.6088 24.0672 52.2553 23.5489 51.7671 23.1811C51.2789 22.8134 50.6831 22.6168 50.0719 22.6217C49.8182 22.6203 49.5656 22.6554 49.3219 22.7257C49.0189 22.808 48.7331 22.9439 48.4781 23.127C47.9981 23.4537 47.6324 23.9225 47.4323 24.4676C47.2323 25.0126 47.2078 25.6067 47.3625 26.1664L49.125 32.7692C48.6655 32.9077 48.2491 33.1612 47.915 33.5057C47.581 33.8503 47.3405 34.2744 47.2162 34.7379L44.3166 43.1689C44.1483 43.6579 44.0625 44.1714 44.0625 44.6885V47.0464C44.0631 48.3175 44.4338 49.5609 45.1294 50.6248H44.0625C43.8139 50.6248 43.5754 50.7236 43.3996 50.8994C43.2238 51.0752 43.125 51.3137 43.125 51.5623ZM54.375 49.6995V50.6248H47.3766L46.725 49.647C46.2108 48.8772 45.9367 47.9721 45.9375 47.0464V44.6885C45.9373 44.3778 45.989 44.0692 46.0903 43.7754L49.0088 35.2826C49.0596 35.0376 49.2051 34.8225 49.4137 34.6842C49.6222 34.5458 49.877 34.4954 50.1225 34.5439C50.1366 34.5439 50.2256 34.5767 50.2472 34.5842C50.4296 34.6452 50.588 34.7624 50.6997 34.9191C50.8114 35.0757 50.8706 35.2637 50.8687 35.456C50.8703 35.5307 50.8611 35.6052 50.8416 35.6773L49.1381 42.0382C49.0737 42.2784 49.1074 42.5344 49.2317 42.7497C49.356 42.9651 49.5607 43.1223 49.8009 43.1867C50.0411 43.2511 50.2971 43.2174 50.5124 43.0931C50.7278 42.9688 50.885 42.764 50.9494 42.5239L52.6462 36.1845C52.7121 35.9474 52.7436 35.7021 52.74 35.456C52.7423 34.9184 52.589 34.3915 52.2985 33.9391C52.0081 33.4866 51.5929 33.1278 51.1031 32.906L49.1681 25.6779C49.1164 25.4913 49.1248 25.2931 49.1921 25.1115C49.2595 24.9299 49.3823 24.7742 49.5431 24.6664C49.629 24.6027 49.7264 24.5562 49.83 24.5295C49.9479 24.4964 50.0712 24.487 50.1927 24.5018C50.3142 24.5167 50.4316 24.5555 50.5381 24.616C50.6445 24.6765 50.7379 24.7575 50.8129 24.8543C50.8878 24.9512 50.9428 25.0619 50.9747 25.1801L55.9931 40.6057C56.1425 41.0648 56.1713 41.5546 56.0766 42.0279L54.6422 47.5957C54.4653 48.283 54.3756 48.9898 54.375 49.6995V49.6995ZM45 52.4998H56.25V56.2498H45V52.4998Z" fill="#222222"/>
<path d="M45.375 8.51626L30.375 1.95376C30.2567 1.90213 30.1291 1.87549 30 1.87549C29.8709 1.87549 29.7433 1.90213 29.625 1.95376L14.625 8.51626C14.4579 8.58919 14.3157 8.70927 14.2158 8.8618C14.1159 9.01432 14.0626 9.19267 14.0625 9.37501V28.125C14.0625 28.2979 14.1103 28.4674 14.2006 28.6148C14.291 28.7623 14.4203 28.8818 14.5744 28.9603L29.5744 36.5916C29.7062 36.6587 29.852 36.6938 30 36.6938C30.1461 36.6935 30.2902 36.6595 30.4209 36.5944L45.4209 29.0569C45.5763 28.9788 45.7069 28.8591 45.7981 28.7111C45.8893 28.5631 45.9376 28.3926 45.9375 28.2188V9.37501C45.9374 9.19267 45.8841 9.01432 45.7842 8.8618C45.6843 8.70927 45.5421 8.58919 45.375 8.51626V8.51626ZM30 3.83532L42.6609 9.37501L30 14.9147L26.7094 13.4747L31.7166 11.2838C31.8835 11.2107 32.0255 11.0905 32.1252 10.938C32.2249 10.7855 32.278 10.6072 32.278 10.425C32.278 10.2428 32.2249 10.0645 32.1252 9.91202C32.0255 9.75951 31.8835 9.63936 31.7166 9.56626L27.6938 7.81219C27.5755 7.76057 27.4478 7.73393 27.3187 7.73393C27.1897 7.73393 27.062 7.76057 26.9437 7.81219L20.3522 10.6931L17.3438 9.37501L30 3.83532ZM21.5625 13.2694L23.4375 14.0897V18.1706L21.5625 17.2331V13.2694ZM22.6875 11.7169L27.315 9.69469L28.9931 10.4269L24.375 12.4509L22.6875 11.7169ZM15.9375 10.8084L19.6875 12.4491V17.8125C19.6874 17.9867 19.7359 18.1575 19.8275 18.3057C19.919 18.4539 20.0501 18.5737 20.2059 18.6516L23.9559 20.5266C24.0989 20.598 24.2578 20.6317 24.4174 20.6245C24.5771 20.6173 24.7322 20.5693 24.8682 20.4853C25.0041 20.4012 25.1162 20.2838 25.194 20.1441C25.2718 20.0045 25.3126 19.8473 25.3125 19.6875V14.9063L29.0625 16.5469V34.2272L15.9375 27.5503V10.8084ZM30.9375 34.2356V16.5506L44.0625 10.8084V27.6403L30.9375 34.2356Z" fill="#222222"/>
<path d="M36.1481 27.4059L32.3915 29.294C32.1693 29.4059 32.0007 29.6015 31.9228 29.8377C31.8448 30.0739 31.8638 30.3314 31.9757 30.5536C32.0876 30.7757 32.2832 30.9443 32.5194 31.0223C32.7556 31.1003 33.0131 31.0812 33.2353 30.9693L36.9918 29.0812C37.214 28.9693 37.3826 28.7738 37.4606 28.5376C37.5385 28.3014 37.5195 28.0438 37.4076 27.8217C37.2957 27.5995 37.1002 27.4309 36.8639 27.3529C36.6277 27.275 36.3702 27.294 36.1481 27.4059Z" fill="#222222"/>
<path d="M32.8129 27.3189C32.9587 27.3189 33.1025 27.2848 33.2329 27.2195L36.936 25.3586C37.1582 25.2467 37.3268 25.0511 37.4048 24.8149C37.4827 24.5787 37.4637 24.3212 37.3518 24.099C37.2399 23.8769 37.0444 23.7083 36.8081 23.6303C36.5719 23.5523 36.3144 23.5714 36.0923 23.6832L32.3901 25.5442C32.2017 25.6392 32.0508 25.7949 31.9618 25.9863C31.8729 26.1776 31.8511 26.3934 31.9 26.5986C31.9489 26.8039 32.0657 26.9867 32.2313 27.1174C32.397 27.2481 32.6019 27.3191 32.8129 27.3189Z" fill="#222222"/>
</svg>
