<svg width="28" height="28" viewBox="0 0 28 28" fill="none" xmlns="http://www.w3.org/2000/svg">
<path d="M20.9987 0.00582587L17.3677 0C13.2885 0 10.6523 2.70466 10.6523 6.89084V10.068H7.00159C6.68613 10.068 6.43066 10.3237 6.43066 10.6392V15.2425C6.43066 15.558 6.68642 15.8134 7.00159 15.8134H10.6523V27.4291C10.6523 27.7445 10.9078 28 11.2233 28H15.9864C16.3019 28 16.5574 27.7442 16.5574 27.4291V15.8134H20.8259C21.1414 15.8134 21.3969 15.558 21.3969 15.2425L21.3986 10.6392C21.3986 10.4877 21.3383 10.3427 21.2314 10.2355C21.1245 10.1283 20.9789 10.068 20.8274 10.068H16.5574V7.37468C16.5574 6.08017 16.8658 5.42301 18.5521 5.42301L20.9981 5.42214C21.3133 5.42214 21.5687 5.16638 21.5687 4.8512V0.576761C21.5687 0.261873 21.3136 0.00640846 20.9987 0.00582587Z" fill="white"/>
</svg>
