<svg width="39" height="25" viewBox="0 0 39 25" fill="none" xmlns="http://www.w3.org/2000/svg">
<path d="M26.4575 0C23.8855 0 21.4921 0.776116 19.5 2.10474C17.5076 0.776116 15.1145 0 12.5425 0C5.6266 0 0 5.60749 0 12.5C0 19.3925 5.6266 25 12.5425 25C15.1145 25 17.5079 24.2239 19.5 22.8953C21.4924 24.2239 23.8855 25 26.4575 25C33.3734 25 39 19.3925 39 12.5C39 5.60749 33.3734 0 26.4575 0V0ZM26.4575 22.7224C22.7227 22.7224 19.4479 20.7223 17.6543 17.7409H18.9725C19.6035 17.7409 20.115 17.2311 20.115 16.6021C20.115 15.9734 19.6035 15.4633 18.9725 15.4633H16.6403C16.4992 15.0001 16.39 14.5235 16.3157 14.035H20.8009C21.4317 14.035 21.9435 13.5252 21.9435 12.8962C21.9435 12.2675 21.4317 11.7574 20.8009 11.7574H16.2273C16.2624 11.2713 16.3323 10.7944 16.4338 10.3294H18.9725C19.6035 10.3294 20.115 9.81933 20.115 9.19061C20.115 8.56159 19.6035 8.05179 18.9725 8.05179H17.2235C18.8862 4.63742 22.4005 2.27763 26.4575 2.27763C32.1133 2.27763 36.7148 6.86345 36.7148 12.5C36.7148 18.1366 32.1133 22.7224 26.4575 22.7224V22.7224Z" fill="#999999"/>
</svg>
