<svg width="88" height="25" viewBox="0 0 88 25" fill="none" xmlns="http://www.w3.org/2000/svg">
<path fill-rule="evenodd" clip-rule="evenodd" d="M63.4927 11.2939V24.9995H71.0815V16.8777H79.6821C83.3019 16.8507 86.3768 14.5307 87.5362 11.2939H63.4927Z" fill="#999999"/>
<path fill-rule="evenodd" clip-rule="evenodd" d="M62.481 0C62.923 5.60209 68.2052 10.0254 74.6563 10.0254C74.6774 10.0254 87.8516 10.0254 87.8516 10.0254C87.949 9.5116 87.9999 8.98132 87.9999 8.43909C87.9999 3.79846 84.2684 0.0343305 79.6523 0.000233494L62.481 0Z" fill="#999999"/>
<path fill-rule="evenodd" clip-rule="evenodd" d="M51.2498 9.89207L51.2558 9.87929L51.2566 9.87948C51.3344 9.73941 51.4835 9.64467 51.6546 9.64467C51.9018 9.64467 52.103 9.84236 52.1098 10.0888L52.1099 10.0888V24.8731H59.6987V0H52.1099C51.1476 0.0321385 50.0603 0.740684 49.6561 1.61044L43.6169 14.605C43.602 14.6581 43.5786 14.7077 43.5484 14.7522L43.5464 14.7565L43.5457 14.7563C43.4543 14.8882 43.3021 14.9746 43.1299 14.9746C42.8505 14.9746 42.6239 14.7474 42.6239 14.467V0H35.0352V24.8731H42.6239V24.8703C43.5758 24.8204 44.6375 24.1198 45.0359 23.2627L51.2343 9.92558C51.239 9.91417 51.2442 9.90299 51.2498 9.89207Z" fill="#999999"/>
<path fill-rule="evenodd" clip-rule="evenodd" d="M22.9122 10.3172L18.4769 24.8731H13.0177L8.5797 10.3084C8.53691 10.0752 8.33321 9.89848 8.08838 9.89848C7.81246 9.89848 7.58879 10.1229 7.58879 10.3997C7.58879 10.4019 7.5888 10.404 7.58883 10.4061L7.58879 24.8731H0V0H6.51371H8.45362C9.84999 0 11.3133 1.08729 11.7213 2.42643L15.4146 14.547C15.5983 15.1501 15.8965 15.1495 16.08 14.547L19.7733 2.42643C20.1816 1.08635 21.6445 0 23.041 0L24.9803 0H31.4935V24.8731H23.9047V10.4061C23.9047 10.404 23.9047 10.4019 23.9047 10.3997C23.9047 10.1229 23.681 9.89848 23.4051 9.89848C23.1572 9.89848 22.9514 10.0797 22.9122 10.3172Z" fill="#999999"/>
</svg>
