<svg width="60" height="60" viewBox="0 0 60 60" fill="none" xmlns="http://www.w3.org/2000/svg">
<path d="M54.1406 5.15625H48.5546V3.51562C48.5546 1.57711 46.9775 0 45.039 0C43.1005 0 41.5234 1.57711 41.5234 3.51562V5.15625H21.8359V3.51562C21.8359 1.57711 20.2588 0 18.3203 0C16.3818 0 14.8046 1.57711 14.8046 3.51562V5.19961C14.705 5.17207 14.6006 5.15625 14.4922 5.15625H9.82301C6.59215 5.15625 3.96363 7.78477 3.96363 11.0156V30.9765C3.96363 31.6238 4.4884 32.1484 5.13551 32.1484C5.78262 32.1484 6.30738 31.6238 6.30738 30.9765V17.2266H48.5546C49.2018 17.2266 49.7265 16.7019 49.7265 16.0547C49.7265 15.4075 49.2018 14.8828 48.5546 14.8828H6.30738V11.0156C6.30738 9.07711 7.88449 7.5 9.82301 7.5H14.4922C14.6006 7.5 14.705 7.48406 14.8046 7.45664V8.96484C14.8046 10.9034 16.3818 12.4805 18.3203 12.4805C20.2588 12.4805 21.8359 10.9034 21.8359 8.96484V7.5H41.5234V8.96484C41.5234 10.9034 43.1005 12.4805 45.039 12.4805C46.9775 12.4805 48.5546 10.9034 48.5546 8.96484V7.5H54.1406C56.0791 7.5 57.6562 9.07711 57.6562 11.0156V55.5462C57.6562 56.7096 56.7097 57.6562 55.5462 57.6562C54.3826 57.6562 53.4361 56.7096 53.4361 55.5462V52.5146C53.4361 51.8674 52.9113 51.3428 52.2642 51.3428H38.6329C37.9857 51.3428 37.461 51.8674 37.461 52.5146C37.461 53.1619 37.9857 53.6865 38.6329 53.6865H51.0923V55.5462C51.0923 56.3092 51.2855 57.0278 51.625 57.6562H4.45312C3.29004 57.6562 2.34375 56.71 2.34375 55.5469V53.6865H28.5732C29.2204 53.6865 29.7451 53.1619 29.7451 52.5146C29.7451 51.8674 29.2204 51.3428 28.5732 51.3428H16.8643C18.9121 49.5792 20.2124 46.9706 20.2124 44.0625C20.2124 38.7639 15.9016 34.4531 10.603 34.4531C5.30437 34.4531 0.993633 38.7639 0.993633 44.0625C0.993633 46.9706 2.29395 49.5792 4.34168 51.3428H1.17188C0.524766 51.3428 0 51.8674 0 52.5146V55.5469C0 58.0023 1.9977 60 4.45312 60H55.5462C58.002 60 60 58.0021 60 55.5462V11.0156C60 7.78477 57.3715 5.15625 54.1406 5.15625ZM19.4921 8.96484C19.4921 9.61102 18.9664 10.1367 18.3203 10.1367C17.6741 10.1367 17.1484 9.61102 17.1484 8.96484V3.51562C17.1484 2.86945 17.6741 2.34375 18.3203 2.34375C18.9664 2.34375 19.4921 2.86945 19.4921 3.51562V8.96484ZM46.2109 8.96484C46.2109 9.61102 45.6852 10.1367 45.039 10.1367C44.3929 10.1367 43.8671 9.61102 43.8671 8.96484V3.51562C43.8671 2.86945 44.3929 2.34375 45.039 2.34375C45.6852 2.34375 46.2109 2.86945 46.2109 3.51562V8.96484ZM3.33738 44.0625C3.33738 40.0562 6.59672 36.7969 10.603 36.7969C14.6093 36.7969 17.8686 40.0562 17.8686 44.0625C17.8686 48.0688 14.6093 51.3281 10.603 51.3281C6.59672 51.3281 3.33738 48.0688 3.33738 44.0625Z" fill="#222222"/>
<path d="M54.8797 15.2262C54.6618 15.0082 54.3595 14.8828 54.0513 14.8828C53.7429 14.8828 53.4407 15.0082 53.2228 15.2262C53.0048 15.4441 52.8794 15.7465 52.8794 16.0547C52.8794 16.3629 53.0047 16.6652 53.2228 16.8832C53.4408 17.1012 53.7429 17.2266 54.0513 17.2266C54.3595 17.2266 54.6618 17.1012 54.8797 16.8832C55.0976 16.6652 55.2231 16.3629 55.2231 16.0547C55.2231 15.7465 55.0978 15.4441 54.8797 15.2262Z" fill="#222222"/>
<path d="M34.9978 51.6854C34.78 51.4675 34.4776 51.3433 34.1694 51.3433C33.8612 51.3433 33.5589 51.4675 33.3409 51.6854C33.123 51.9046 32.9976 52.2058 32.9976 52.514C32.9976 52.8233 33.1228 53.1245 33.3409 53.3437C33.5589 53.5616 33.8612 53.6858 34.1694 53.6858C34.4776 53.6858 34.78 53.5616 34.9978 53.3437C35.2158 53.1245 35.3413 52.8222 35.3413 52.514C35.3413 52.2058 35.2159 51.9046 34.9978 51.6854Z" fill="#222222"/>
<path d="M26.5132 35.625C24.0578 35.625 22.0601 37.6227 22.0601 40.0781C22.0601 42.5336 24.0578 44.5312 26.5132 44.5312C28.9686 44.5312 30.9663 42.5336 30.9663 40.0781C30.9663 37.6227 28.9686 35.625 26.5132 35.625ZM26.5132 42.1875C25.3501 42.1875 24.4038 41.2412 24.4038 40.0781C24.4038 38.915 25.3501 37.9688 26.5132 37.9688C27.6763 37.9688 28.6226 38.915 28.6226 40.0781C28.6226 41.2412 27.6763 42.1875 26.5132 42.1875Z" fill="#222222"/>
<path d="M37.4507 35.625C34.9953 35.625 32.9976 37.6227 32.9976 40.0781C32.9976 42.5336 34.9953 44.5312 37.4507 44.5312C39.9061 44.5312 41.9038 42.5336 41.9038 40.0781C41.9038 37.6227 39.9061 35.625 37.4507 35.625ZM37.4507 42.1875C36.2876 42.1875 35.3413 41.2412 35.3413 40.0781C35.3413 38.915 36.2876 37.9688 37.4507 37.9688C38.6138 37.9688 39.5601 38.915 39.5601 40.0781C39.5601 41.2412 38.6138 42.1875 37.4507 42.1875Z" fill="#222222"/>
<path d="M48.3882 35.625C45.9328 35.625 43.9351 37.6227 43.9351 40.0781C43.9351 42.5336 45.9328 44.5312 48.3882 44.5312C50.8436 44.5312 52.8413 42.5336 52.8413 40.0781C52.8413 37.6227 50.8436 35.625 48.3882 35.625ZM48.3882 42.1875C47.2251 42.1875 46.2788 41.2412 46.2788 40.0781C46.2788 38.915 47.2251 37.9688 48.3882 37.9688C49.5513 37.9688 50.4976 38.915 50.4976 40.0781C50.4976 41.2412 49.5513 42.1875 48.3882 42.1875Z" fill="#222222"/>
<path d="M15.5757 23.4375C13.1203 23.4375 11.1226 25.4352 11.1226 27.8906C11.1226 30.3461 13.1203 32.3438 15.5757 32.3438C18.0311 32.3438 20.0288 30.3461 20.0288 27.8906C20.0288 25.4352 18.0311 23.4375 15.5757 23.4375ZM15.5757 30C14.4126 30 13.4663 29.0537 13.4663 27.8906C13.4663 26.7275 14.4126 25.7812 15.5757 25.7812C16.7388 25.7812 17.6851 26.7275 17.6851 27.8906C17.6851 29.0537 16.7388 30 15.5757 30Z" fill="#222222"/>
<path d="M37.4507 23.4375C34.9953 23.4375 32.9976 25.4352 32.9976 27.8906C32.9976 30.3461 34.9953 32.3438 37.4507 32.3438C39.9061 32.3438 41.9038 30.3461 41.9038 27.8906C41.9038 25.4352 39.9061 23.4375 37.4507 23.4375ZM37.4507 30C36.2876 30 35.3413 29.0537 35.3413 27.8906C35.3413 26.7275 36.2876 25.7812 37.4507 25.7812C38.6138 25.7812 39.5601 26.7275 39.5601 27.8906C39.5601 29.0537 38.6138 30 37.4507 30Z" fill="#222222"/>
<path d="M48.3882 23.4375C45.9328 23.4375 43.9351 25.4352 43.9351 27.8906C43.9351 30.3461 45.9328 32.3438 48.3882 32.3438C50.8436 32.3438 52.8413 30.3461 52.8413 27.8906C52.8413 25.4352 50.8436 23.4375 48.3882 23.4375ZM48.3882 30C47.2251 30 46.2788 29.0537 46.2788 27.8906C46.2788 26.7275 47.2251 25.7812 48.3882 25.7812C49.5513 25.7812 50.4976 26.7275 50.4976 27.8906C50.4976 29.0537 49.5513 30 48.3882 30Z" fill="#222222"/>
<path d="M26.5132 23.4375C24.0578 23.4375 22.0601 25.4352 22.0601 27.8906C22.0601 30.3461 24.0578 32.3438 26.5132 32.3438C28.9686 32.3438 30.9663 30.3461 30.9663 27.8906C30.9663 25.4352 28.9686 23.4375 26.5132 23.4375ZM26.5132 30C25.3501 30 24.4038 29.0537 24.4038 27.8906C24.4038 26.7275 25.3501 25.7812 26.5132 25.7812C27.6763 25.7812 28.6226 26.7275 28.6226 27.8906C28.6226 29.0537 27.6763 30 26.5132 30Z" fill="#222222"/>
<path d="M14.7775 41.2065C14.3198 40.7489 13.578 40.7489 13.1201 41.2065L9.3038 45.023L7.99962 43.7188C7.54188 43.2611 6.80009 43.2611 6.34224 43.7188C5.88462 44.1764 5.88462 44.9184 6.34224 45.3762L8.47517 47.5089C8.69501 47.7286 8.99302 47.8521 9.3038 47.8521C9.61458 47.8521 9.91259 47.7286 10.1324 47.5089L14.7775 42.8638C15.2351 42.4061 15.2351 41.6641 14.7775 41.2065Z" fill="#222222"/>
</svg>
