<svg width="82" height="82" viewBox="0 0 82 82" fill="none" xmlns="http://www.w3.org/2000/svg">
<path d="M34.4446 73.3404C34.1469 73.0423 33.7337 72.8711 33.3125 72.8711C32.8913 72.8711 32.4781 73.0423 32.1802 73.3404C31.8823 73.6384 31.7109 74.0514 31.7109 74.4727C31.7109 74.8939 31.8821 75.3071 32.1802 75.6048C32.4781 75.9027 32.8913 76.0742 33.3125 76.0742C33.7337 76.0742 34.1469 75.9029 34.4446 75.6048C34.7427 75.3071 34.9141 74.8939 34.9141 74.4727C34.9141 74.0514 34.7427 73.6382 34.4446 73.3404Z" fill="#D83A3F"/>
<path d="M55.9563 4.46786H45.9033C45.0189 4.46786 44.3018 5.18488 44.3018 6.06943C44.3018 6.95397 45.0189 7.67099 45.9033 7.67099H55.9563C56.8407 7.67099 57.5579 6.95397 57.5579 6.06943C57.5579 5.18488 56.8407 4.46786 55.9563 4.46786Z" fill="#D83A3F"/>
<path d="M72.7109 36.1953C73.5953 36.1953 74.3125 35.4783 74.3125 34.5938V5.79029C74.3125 2.59741 71.7149 0 68.5222 0H33.3372C30.1445 0 27.5469 2.59741 27.5469 5.79029V16.8491C22.924 20.5979 19.1127 25.3782 16.5003 30.7241C13.772 36.3069 12.3299 42.5425 12.3299 48.7564V65.5039H10.8906C9.12442 65.5039 7.6875 66.9408 7.6875 68.707V80.3984C7.6875 81.2828 8.40468 82 9.28906 82C10.1734 82 10.8906 81.2828 10.8906 80.3984V68.707H39.3075V80.3984C39.3075 81.2828 40.0246 82 40.909 82C41.7934 82 42.5106 81.2828 42.5106 80.3984V73.3516H68.5222C71.7149 73.3516 74.3125 70.754 74.3125 67.5613V47.9074C74.3125 47.023 73.5953 46.3058 72.7109 46.3058C71.8266 46.3058 71.1094 47.023 71.1094 47.9074V59.7383H47.0978L52.1912 52.561C53.4062 50.8491 53.5625 48.6271 52.599 46.7619C51.6355 44.8968 49.733 43.738 47.6337 43.738C46.4391 43.738 45.2534 44.1311 44.2949 44.8449L34.1797 52.3805C33.8117 52.6547 33.3561 52.8058 32.8971 52.8058C31.713 52.8058 30.75 51.8426 30.75 50.6587V48.6875V12.1786H71.1094V34.5938C71.1094 35.4783 71.8266 36.1953 72.7109 36.1953ZM71.1094 62.9414V67.5613C71.1094 68.9878 69.9487 70.1484 68.5222 70.1484H42.5106V68.707C42.5106 67.6556 41.9991 66.7237 41.2143 66.1394C42.5479 65.2682 43.7536 64.1924 44.78 62.9382C44.8013 62.939 44.8223 62.9414 44.8438 62.9414H71.1094ZM32.8971 56.0089C34.0411 56.0089 35.1761 55.6325 36.0935 54.9493L46.2084 47.4136C46.6176 47.109 47.1237 46.9412 47.6335 46.9412C48.5432 46.9412 49.3355 47.4237 49.7529 48.232C50.1702 49.0402 50.1052 49.9654 49.5788 50.7072L42.8203 60.2308C40.4771 63.5325 36.6609 65.5039 32.6121 65.5039H15.5331V48.7564C15.5331 38.1369 19.8733 28.2283 27.5469 21.0852V48.6875V50.6587C27.5469 53.6088 29.947 56.0089 32.8971 56.0089ZM30.75 8.97548V5.79029C30.75 4.36378 31.9107 3.20312 33.3372 3.20312H68.5221C69.9487 3.20312 71.1094 4.36378 71.1094 5.79029V8.97548H30.75Z" fill="#D83A3F"/>
<path d="M52.0618 65.2765C51.7641 64.9786 51.3509 64.8071 50.9297 64.8071C50.5085 64.8071 50.0953 64.9784 49.7974 65.2765C49.4995 65.5742 49.3281 65.9874 49.3281 66.4086C49.3281 66.8316 49.4993 67.243 49.7974 67.5409C50.0953 67.8406 50.5085 68.0102 50.9297 68.0102C51.3509 68.0102 51.7641 67.8404 52.0618 67.5409C52.3597 67.243 52.5312 66.8314 52.5312 66.4086C52.5312 65.9874 52.3599 65.5742 52.0618 65.2765Z" fill="#D83A3F"/>
<path d="M62.9999 25.4307C62.3263 24.6043 61.3283 24.1303 60.2622 24.1303H55.8859L54.5299 21.7813C54.0877 21.0152 53.1082 20.7529 52.3421 21.1951C51.5761 21.6373 51.3136 22.6168 51.756 23.3828L52.1874 24.1303H49.6722L50.1036 23.3828C50.546 22.6168 50.2835 21.6373 49.5175 21.1951C48.7511 20.7527 47.7722 21.0152 47.3297 21.7813L45.9735 24.1303H41.5972C40.5311 24.1303 39.5332 24.6042 38.8595 25.4307C38.1859 26.2573 37.9228 27.33 38.1377 28.3744L40.2446 38.6077C40.5812 40.2415 42.0361 41.4271 43.7039 41.4271H58.1555C59.8234 41.4271 61.2782 40.2415 61.615 38.6076L63.7217 28.3744C63.9366 27.33 63.6735 26.2571 62.9999 25.4307ZM60.5844 27.7285L58.4779 37.9614C58.4465 38.1137 58.311 38.2242 58.1556 38.2242H43.7041C43.5488 38.2242 43.4134 38.1137 43.382 37.9617L41.2753 27.7287C41.2492 27.6021 41.2976 27.5099 41.3424 27.4546C41.3874 27.3994 41.4683 27.3336 41.5974 27.3336H44.1244L43.2151 28.9084C42.7728 29.6744 43.0353 30.6539 43.8013 31.0961C44.0536 31.2417 44.3289 31.3109 44.6005 31.3109C45.154 31.3109 45.6923 31.0237 45.9891 30.5099L47.823 27.3336H54.0367V27.3334L55.8707 30.5098C56.1675 31.0236 56.7056 31.3107 57.2592 31.3107C57.5309 31.3107 57.8063 31.2415 58.0584 31.0959C58.8245 30.6538 59.087 29.6742 58.6446 28.9082L57.7354 27.3334H60.2623C60.3914 27.3334 60.4723 27.3992 60.5173 27.4545C60.5622 27.5097 60.6105 27.6021 60.5844 27.7285Z" fill="#D83A3F"/>
<path d="M73.8431 39.8677C73.5454 39.5698 73.1321 39.3984 72.7109 39.3984C72.2897 39.3984 71.8765 39.5698 71.5786 39.8677C71.2807 40.1656 71.1094 40.5788 71.1094 41C71.1094 41.4212 71.2806 41.8344 71.5786 42.1321C71.8765 42.43 72.2897 42.6016 72.7109 42.6016C73.1321 42.6016 73.5454 42.4302 73.8431 42.1321C74.1411 41.8344 74.3125 41.4212 74.3125 41C74.3125 40.5788 74.1411 40.1656 73.8431 39.8677Z" fill="#D83A3F"/>
</svg>
