<svg width="82" height="82" viewBox="0 0 82 82" fill="none" xmlns="http://www.w3.org/2000/svg">
<g clip-path="url(#clip0)">
<path d="M81.817 56.3408C81.2482 54.2679 79.5101 52.7254 77.3842 52.4065V21.2469H80.0994C80.8492 21.2469 81.4571 20.639 81.4571 19.8893V6.31312C81.4571 5.56272 80.8492 4.95551 80.0994 4.95551H20.3643C19.6145 4.95551 19.0066 5.56272 19.0066 6.31312V19.8893C19.0066 20.639 19.6145 21.2469 20.3643 21.2469H23.0795V48.3993H21.7219C18.3524 48.3913 15.0518 49.3572 12.2186 51.1808V44.3264C12.2186 43.576 11.6107 42.9688 10.8609 42.9688H1.35762C0.607879 42.9688 0 43.576 0 44.3264V75.5516C0 76.3014 0.607879 76.9092 1.35762 76.9092H10.8609C11.6107 76.9092 12.2186 76.3014 12.2186 75.5516V68.6979C15.0525 70.5202 18.3524 71.4861 21.7219 71.4788H44.0139C45.5584 71.4761 47.0957 71.2733 48.5879 70.8755L77.9815 63.0016C80.8737 62.2134 82.5873 59.2383 81.817 56.3408V56.3408ZM21.7219 7.67074H78.7418V18.5317H21.7219V7.67074ZM25.7947 21.2469H74.669V52.6398L58.9125 56.8652C58.2635 55.318 56.9397 54.1559 55.3216 53.7124L37.0289 48.8063C35.9987 48.5352 34.9381 48.3979 33.8728 48.3993H25.7947V21.2469ZM9.50332 74.194H2.71524V45.684H9.50332V74.194ZM77.2768 60.3785L47.8885 68.2524C46.6244 68.5899 45.3224 68.7616 44.0139 68.7635H21.7219C18.4896 68.7708 15.3428 67.7221 12.7615 65.7765L12.2186 65.3695V54.5086L12.7615 54.1009C15.3428 52.1553 18.4896 51.1059 21.7219 51.1145H33.8728C34.7021 51.1138 35.5287 51.2212 36.3315 51.4334L54.6183 56.3355C55.6988 56.6331 56.4896 57.5592 56.6129 58.6735C56.6275 58.7292 56.6454 58.7843 56.6673 58.8379C56.6514 58.8963 56.6394 58.9553 56.6315 59.0156C56.6328 59.2364 56.603 59.4564 56.542 59.6686C56.2225 60.8518 55.1506 61.6745 53.9249 61.6765C53.6856 61.6785 53.4482 61.648 53.2175 61.587L41.6778 58.4926C41.2045 58.352 40.6921 58.4793 40.3394 58.8254C39.9874 59.1714 39.8502 59.6812 39.9821 60.1571C40.114 60.6324 40.4939 60.9997 40.9745 61.1143L52.5142 64.2101C52.9749 64.3314 53.4502 64.3924 53.9275 64.3917C56.3683 64.3904 58.5075 62.7577 59.1525 60.4031C59.2281 60.1306 59.2791 59.8522 59.3063 59.5711L75.8569 55.133C75.9749 55.1032 76.1028 55.0727 76.2235 55.0528C77.5751 54.8785 78.8459 55.7329 79.1952 57.0494C79.2562 57.2788 79.2867 57.5155 79.2847 57.7528C79.2867 58.9818 78.4634 60.0583 77.2768 60.3785V60.3785Z" fill="#D83A3F"/>
<path d="M43.444 26.6774H57.0202C57.77 26.6774 58.3778 26.0695 58.3778 25.3198C58.3778 24.5694 57.77 23.9622 57.0202 23.9622H43.444C42.6943 23.9622 42.0864 24.5694 42.0864 25.3198C42.0864 26.0695 42.6943 26.6774 43.444 26.6774Z" fill="#D83A3F"/>
</g>
<defs>
<clipPath id="clip0">
<rect width="82" height="82" fill="white"/>
</clipPath>
</defs>
</svg>
