<svg width="82" height="82" viewBox="0 0 82 82" fill="none" xmlns="http://www.w3.org/2000/svg">
<path d="M60.6841 20.9735C62.642 18.4776 62.9839 15.3337 61.6737 11.8815C60.738 9.4162 59.2726 7.64875 59.2108 7.57482C58.7306 7.00027 57.8752 6.92393 57.3007 7.40447C56.7261 7.8846 56.6502 8.73839 57.1287 9.31294C57.1946 9.39289 61.8413 15.1034 58.5498 19.2997C53.8104 25.3429 58.8636 33.3131 59.081 33.6494C59.3405 34.0507 59.7765 34.2693 60.2213 34.2693C60.4736 34.2693 60.7287 34.199 60.9561 34.052C61.5845 33.6453 61.7653 32.806 61.3587 32.1768C61.3169 32.1125 57.142 25.4891 60.6841 20.9735Z" fill="#D83A3F"/>
<path d="M69.786 20.9735C71.7439 18.4776 72.0858 15.3337 70.7756 11.8815C69.8394 9.4162 68.3741 7.64875 68.3122 7.57482C67.8325 7.00027 66.9767 6.92393 66.4022 7.40447C65.8284 7.8842 65.7517 8.73799 66.2302 9.31254C66.2776 9.36999 70.9495 15.095 67.6513 19.2997C62.9119 25.3429 67.9655 33.3131 68.1829 33.6494C68.4424 34.0507 68.8779 34.2693 69.3227 34.2693C69.575 34.2693 69.8302 34.199 70.058 34.052C70.6868 33.6453 70.8672 32.806 70.4606 32.1768C70.4192 32.1125 66.2439 25.4891 69.786 20.9735Z" fill="#D83A3F"/>
<path d="M12.8458 21.6019C14.8037 19.106 15.1456 15.9621 13.8354 12.5099C12.8992 10.0446 11.4343 8.27714 11.3724 8.20321C10.8923 7.62866 10.0373 7.55232 9.46235 8.03285C8.88861 8.51258 8.81187 9.36637 9.29039 9.94092C9.3382 9.99838 14.0097 15.7234 10.7119 19.9281C5.97166 25.9713 11.0253 33.9411 11.2431 34.2778C11.5026 34.6791 11.9381 34.8977 12.3829 34.8977C12.6352 34.8977 12.8904 34.8274 13.1178 34.6803C13.7466 34.2737 13.927 33.434 13.52 32.8052C13.4786 32.7409 9.30325 26.1175 12.8458 21.6019Z" fill="#D83A3F"/>
<path d="M21.9478 21.6019C23.9057 19.106 24.2476 15.9621 22.9378 12.5099C22.0021 10.0446 20.5368 8.27714 20.4749 8.20321C19.9948 7.62866 19.1398 7.55232 18.5648 8.03285C17.9911 8.51258 17.9143 9.36637 18.3929 9.94092C18.4407 9.99838 23.1122 15.7234 19.814 19.9281C15.0737 25.9713 20.1274 33.9411 20.3447 34.2778C20.6043 34.6791 21.0398 34.8977 21.4846 34.8977C21.7369 34.8977 21.992 34.8274 22.2198 34.6803C22.8486 34.2737 23.029 33.434 22.622 32.8052C22.5806 32.7409 18.4053 26.1175 21.9478 21.6019Z" fill="#D83A3F"/>
<path d="M77.4984 64.2106H74.6221C73.9467 47.2943 60.6994 33.5582 43.9897 32.1077V30.7268C45.6864 29.7119 46.7399 27.8926 46.7399 25.87C46.7399 22.7393 44.1922 20.192 41.0615 20.192C41.041 20.192 40.9594 20.192 40.9389 20.192C37.8078 20.192 35.2605 22.7393 35.2605 25.87C35.2605 27.8926 36.3144 29.7123 38.0103 30.7268V32.1077C21.301 33.5582 8.05335 47.2939 7.37795 64.2106H4.50158C2.01936 64.2106 0 66.23 0 68.7118V70.4073C0 72.8912 2.01936 74.9113 4.50118 74.9113H77.4988C79.981 74.9113 82 72.8912 82 70.4073V68.7118C81.9996 66.23 79.9802 64.2106 77.4984 64.2106ZM37.9718 25.87C37.9718 24.2348 39.3025 22.9041 40.9381 22.9041C40.959 22.9041 41.0402 22.9041 41.0607 22.9041C42.6963 22.9041 44.027 24.2348 44.027 25.87C44.027 27.0926 43.2853 28.1743 42.1374 28.6247C41.6183 28.8284 41.2772 29.3294 41.2772 29.8871V31.9807H40.7216V29.8871C40.7216 29.3294 40.38 28.8288 39.8613 28.6247C38.7134 28.1738 37.9718 27.0926 37.9718 25.87ZM77.4984 72.1989H4.50078C3.514 72.1989 2.71164 71.3949 2.71164 70.4069V68.7114C2.71164 67.725 3.5144 66.9227 4.50078 66.9227H6.73028C6.74273 66.9231 6.75438 66.9247 6.76684 66.9247H55.4638C56.2123 66.9247 56.8198 66.3176 56.8198 65.5686C56.8198 64.8201 56.2123 64.2126 55.4638 64.2126H10.0936C10.8032 47.8552 24.2991 34.7583 40.8132 34.6924H41.186C57.7005 34.7583 71.1956 47.8548 71.9056 64.2126H64.2347C63.4858 64.2126 62.8787 64.8201 62.8787 65.5686C62.8787 66.3176 63.4858 66.9247 64.2347 66.9247L74.7064 66.9227H77.498C78.4848 66.9227 79.2872 67.725 79.2872 68.7114V70.4069H79.2876C79.2876 71.3949 78.4848 72.1989 77.4984 72.1989Z" fill="#D83A3F"/>
</svg>
