<svg width="82" height="82" viewBox="0 0 82 82" fill="none" xmlns="http://www.w3.org/2000/svg">
<path d="M74.9995 0H14.8468C11.2415 0 8.30842 2.9331 8.30842 6.53835V26.9197L0.845549 34.3825C0.601015 34.6271 0.462402 34.9605 0.462402 35.3071V81.0755H3.07774V35.8484L8.30842 30.6178V33.9994C8.30842 34.7212 8.89425 35.3071 9.61608 35.3071H25.142C24.5601 37.5602 22.5097 39.2301 20.0774 39.2301H14.8468C14.1249 39.2301 13.5391 39.8159 13.5391 40.5377C13.5391 44.9367 10.0921 48.3838 5.69308 48.3838V50.9991C6.6006 50.9991 7.47412 50.8801 8.30842 50.6722V69.3065C8.30842 72.9117 11.2415 75.8448 14.8468 75.8448H18.7698V81.0755H21.3851V75.8448H42.3078V78.4601C42.3078 78.8067 42.4451 79.1401 42.691 79.3847L45.3063 82L47.1553 80.151L44.9231 77.9188V69.8478L47.5385 67.2299V73.2295H50.1538V37.266C50.1538 36.1858 51.0326 35.3071 52.1179 35.3071C53.1981 35.3071 54.0768 36.1858 54.0768 37.266V55.5733V66.6911H56.6922V55.5733C56.6922 54.4932 57.5709 53.6144 58.6563 53.6144C59.7364 53.6144 60.6152 54.4932 60.6152 55.5733V66.6911H63.2305V55.5733C63.2305 54.4932 64.1093 53.6144 65.1946 53.6144C66.2748 53.6144 67.1535 54.4932 67.1535 55.5733V66.6911H68.4612H69.7689L69.7741 55.5707C69.7741 54.4919 70.6528 53.6131 71.733 53.6131C72.8131 53.6131 73.6919 54.4919 73.6919 55.572V81.0755H76.3072V75.7127C79.2874 75.1047 81.5379 72.4632 81.5379 69.3065V6.53835C81.5379 2.9331 78.6048 0 74.9995 0ZM78.9225 69.3065C78.9225 71.009 77.8254 72.4475 76.3072 72.9889V55.5733C76.3072 53.0508 74.2555 50.9991 71.733 50.9991C70.4515 50.9991 69.2942 51.5326 68.4638 52.3852C67.6321 51.5326 66.4735 50.9991 65.1894 50.9991C63.9092 50.9991 62.7532 51.5313 61.9228 52.3813C61.0912 51.5313 59.9339 50.9991 58.6511 50.9991C57.9475 50.9991 57.2885 51.1717 56.6922 51.4568V37.266C56.6922 34.7435 54.6404 32.6917 52.1127 32.6917C49.5902 32.6917 47.5385 34.7435 47.5385 37.266V63.5292L42.6896 68.3819C42.4451 68.6278 42.3078 68.9599 42.3078 69.3065V73.2295H14.8468C12.6839 73.2295 10.9238 71.4693 10.9238 69.3065V49.63C13.7169 48.0464 15.6732 45.2205 16.0773 41.8454H20.0774C24.4045 41.8454 27.9234 38.3265 27.9234 33.9994C27.9234 33.2776 27.3376 32.6917 26.6158 32.6917H10.9238V27.461V6.53835C10.9238 4.37546 12.6839 2.61534 14.8468 2.61534H74.9995C77.1624 2.61534 78.9225 4.37546 78.9225 6.53835V69.3065V69.3065Z" fill="#D83A3F"/>
<path d="M37.077 5.23068H17.462C16.7401 5.23068 16.1543 5.81652 16.1543 6.53835V13.0767C16.1543 13.7985 16.7401 14.3844 17.462 14.3844H37.077C37.7988 14.3844 38.3847 13.7985 38.3847 13.0767V6.53835C38.3847 5.81652 37.7988 5.23068 37.077 5.23068ZM35.7693 11.769H18.7696V7.84602H35.7693V11.769Z" fill="#D83A3F"/>
<path d="M72.3841 5.23068H52.7691C52.0473 5.23068 51.4614 5.81652 51.4614 6.53835V13.0767C51.4614 13.7985 52.0473 14.3844 52.7691 14.3844H72.3841C73.106 14.3844 73.6918 13.7985 73.6918 13.0767V6.53835C73.6918 5.81652 73.106 5.23068 72.3841 5.23068ZM71.0765 11.769H54.0768V7.84602H71.0765V11.769Z" fill="#D83A3F"/>
<path d="M37.077 44.4608H17.462C16.7401 44.4608 16.1543 45.0466 16.1543 45.7684V52.3068C16.1543 53.0286 16.7401 53.6144 17.462 53.6144H37.077C37.7988 53.6144 38.3847 53.0286 38.3847 52.3068V45.7684C38.3847 45.0466 37.7988 44.4608 37.077 44.4608ZM35.7693 50.9991H18.7696V47.0761H35.7693V50.9991Z" fill="#D83A3F"/>
<path d="M46.2306 5.23068H43.6152V30.0764H46.2306V5.23068Z" fill="#D83A3F"/>
<path d="M30.5387 16.9997H16.1543V19.615H30.5387V16.9997Z" fill="#D83A3F"/>
<path d="M38.3849 16.9997H34.4619V19.615H38.3849V16.9997Z" fill="#D83A3F"/>
<path d="M30.5387 22.2304H16.1543V24.8457H30.5387V22.2304Z" fill="#D83A3F"/>
<path d="M38.3849 22.2304H34.4619V24.8457H38.3849V22.2304Z" fill="#D83A3F"/>
<path d="M30.5387 27.4611H16.1543V30.0764H30.5387V27.4611Z" fill="#D83A3F"/>
<path d="M38.3849 27.4611H34.4619V30.0764H38.3849V27.4611Z" fill="#D83A3F"/>
<path d="M38.3849 32.6917H34.4619V35.307H38.3849V32.6917Z" fill="#D83A3F"/>
<path d="M38.3849 37.9224H34.4619V40.5377H38.3849V37.9224Z" fill="#D83A3F"/>
<path d="M30.5387 56.2298H16.1543V58.8451H30.5387V56.2298Z" fill="#D83A3F"/>
<path d="M38.3849 56.2298H34.4619V58.8451H38.3849V56.2298Z" fill="#D83A3F"/>
<path d="M30.5387 61.4604H16.1543V64.0758H30.5387V61.4604Z" fill="#D83A3F"/>
<path d="M38.3849 61.4604H34.4619V64.0758H38.3849V61.4604Z" fill="#D83A3F"/>
<path d="M30.5387 66.6911H16.1543V69.3064H30.5387V66.6911Z" fill="#D83A3F"/>
<path d="M38.3849 66.6911H34.4619V69.3064H38.3849V66.6911Z" fill="#D83A3F"/>
<path d="M65.8458 16.9997H51.4614V19.615H65.8458V16.9997Z" fill="#D83A3F"/>
<path d="M73.6916 16.9997H69.7686V19.615H73.6916V16.9997Z" fill="#D83A3F"/>
<path d="M65.8458 22.2304H51.4614V24.8457H65.8458V22.2304Z" fill="#D83A3F"/>
<path d="M73.6916 22.2304H69.7686V24.8457H73.6916V22.2304Z" fill="#D83A3F"/>
<path d="M65.8458 27.4611H51.4614V30.0764H65.8458V27.4611Z" fill="#D83A3F"/>
<path d="M73.6916 27.4611H69.7686V30.0764H73.6916V27.4611Z" fill="#D83A3F"/>
<path d="M65.8455 32.6917H59.3071V35.307H65.8455V32.6917Z" fill="#D83A3F"/>
<path d="M73.6916 32.6917H69.7686V35.307H73.6916V32.6917Z" fill="#D83A3F"/>
<path d="M65.8455 37.9224H59.3071V40.5377H65.8455V37.9224Z" fill="#D83A3F"/>
<path d="M73.6916 37.9224H69.7686V40.5377H73.6916V37.9224Z" fill="#D83A3F"/>
<path d="M65.8455 43.1531H59.3071V45.7684H65.8455V43.1531Z" fill="#D83A3F"/>
<path d="M73.6916 43.1531H69.7686V45.7684H73.6916V43.1531Z" fill="#D83A3F"/>
</svg>
