<svg width="80" height="25" viewBox="0 0 80 25" fill="none" xmlns="http://www.w3.org/2000/svg">
<path d="M32.0325 0.415578L27.9668 24.6363H34.4693L38.5384 0.415578H32.0325Z" fill="#999999"/>
<path d="M22.5145 0.442879L16.1458 16.9607L15.4668 14.4667C14.2108 11.4616 10.6451 7.14576 6.45899 4.4259L12.2825 24.6245L19.1629 24.6127L29.4034 0.437785L22.5145 0.442879Z" fill="#999999"/>
<path d="M12.9983 2.17633C12.6203 0.700943 11.5249 0.261214 10.1652 0.208582H0.0836226L0 0.690756C7.84547 2.62285 13.0368 7.27819 15.1909 12.8758L12.9983 2.17633Z" fill="#999999"/>
<path d="M51.7172 5.05942C53.8446 5.02547 55.3866 5.49745 56.5841 5.98642L57.1711 6.26655L58.0508 1.01698C56.763 0.526314 54.7444 0 52.2257 0C45.8001 0 41.2711 3.28523 41.236 7.99321C41.1942 11.472 44.4621 13.4143 46.9307 14.5739C49.4644 15.7623 50.314 16.5178 50.3023 17.5789C50.2823 19.2003 48.282 19.944 46.4139 19.944C43.8099 19.944 42.4268 19.5789 40.291 18.6757L39.4531 18.2886L38.5383 23.7097C40.0602 24.3871 42.8683 24.9694 45.7834 25C52.6187 25 57.0607 21.7538 57.1075 16.7233C57.136 13.9711 55.4016 11.871 51.6436 10.1477C49.3691 9.02377 47.9776 8.27674 47.991 7.14261C47.991 6.13582 49.1718 5.05942 51.7172 5.05942Z" fill="#999999"/>
<path d="M74.7385 0.44294H69.7144C68.154 0.44294 66.9933 0.874179 66.3076 2.45313L56.6526 24.6501H63.4812C63.4812 24.6501 64.595 21.6654 64.8476 21.0117C65.5952 21.0117 72.2298 21.0219 73.1747 21.0219C73.3687 21.8674 73.9675 24.6501 73.9675 24.6501H80L74.7385 0.44294ZM66.7191 16.0541C67.2542 14.6637 69.3097 9.28505 69.3097 9.28505C69.2746 9.35126 69.8399 7.88436 70.176 6.97265L70.6142 9.06094C70.6142 9.06094 71.8602 14.8436 72.1211 16.0541H66.7191Z" fill="#999999"/>
</svg>
