<svg width="60" height="60" viewBox="0 0 60 60" fill="none" xmlns="http://www.w3.org/2000/svg">
<path d="M39.375 39.375C38.7282 39.375 38.2031 39.9001 38.2031 40.5469C38.2031 41.1937 38.7282 41.7188 39.375 41.7188C40.0218 41.7188 40.5469 41.1937 40.5469 40.5469C40.5469 39.9001 40.0218 39.375 39.375 39.375Z" fill="#222222"/>
<path d="M23.4374 38.2031C22.7911 38.2031 22.2655 37.6776 22.2655 37.0312C22.2655 36.3849 22.7911 35.8594 23.4374 35.8594C23.8526 35.8594 24.2907 36.0713 24.705 36.4719C25.1701 36.9218 25.9121 36.9099 26.3621 36.4444C26.812 35.9793 26.7997 35.2377 26.3346 34.7878C25.74 34.2119 25.1449 33.8864 24.6093 33.7088V32.3438C24.6093 31.6965 24.0847 31.1719 23.4374 31.1719C22.7901 31.1719 22.2655 31.6965 22.2655 32.3438V33.717C20.9014 34.2009 19.9218 35.5037 19.9218 37.0312C19.9218 38.9699 21.4988 40.5469 23.4374 40.5469C24.0833 40.5469 24.6093 41.0724 24.6093 41.7188C24.6093 42.3651 24.0833 42.8906 23.4374 42.8906C22.9366 42.8906 22.396 42.5757 21.9154 42.0039C21.4992 41.5086 20.76 41.4445 20.2647 41.8611C19.7689 42.2777 19.7053 43.017 20.1214 43.5123C20.7481 44.2575 21.4846 44.7766 22.2655 45.0385V46.4062C22.2655 47.0535 22.7901 47.5781 23.4374 47.5781C24.0847 47.5781 24.6093 47.0535 24.6093 46.4062V45.033C25.973 44.5491 26.953 43.2463 26.953 41.7188C26.953 39.7801 25.376 38.2031 23.4374 38.2031V38.2031Z" fill="#222222"/>
<path d="M14.0625 19.4531C14.7098 19.4531 15.2344 18.9285 15.2344 18.2812V13.5938C15.2344 12.9465 14.7098 12.4219 14.0625 12.4219C13.4152 12.4219 12.8906 12.9465 12.8906 13.5938V18.2812C12.8906 18.9285 13.4152 19.4531 14.0625 19.4531Z" fill="#222222"/>
<path d="M55.3125 27.6562V18.2812C55.3125 15.0504 52.684 12.4219 49.4531 12.4219H42.8906V3.51562C42.8906 1.577 41.3136 0 39.375 0H17.5781C15.6395 0 14.0625 1.577 14.0625 3.51562V7.73438H10.5469C8.60825 7.73438 7.03125 9.31137 7.03125 11.25V12.4219H5.85938C2.62848 12.4219 0 15.0504 0 18.2812V54.1406C0 57.3715 2.62848 60 5.85938 60H41.7188C44.5482 60 46.9157 57.984 47.46 55.3125H49.4531C52.684 55.3125 55.3125 52.684 55.3125 49.4531V46.4062H56.4844C58.423 46.4062 60 44.8293 60 42.8906V32.3438C60 29.7592 57.897 27.6562 55.3125 27.6562ZM57.6562 32.3438C57.6562 33.6383 56.6071 34.6875 55.3125 34.6875V30C56.6048 30 57.6562 31.0515 57.6562 32.3438ZM49.4531 14.7656C51.3918 14.7656 52.9688 16.3426 52.9688 18.2812V34.6875H47.5781V27.6562C47.5781 24.8268 45.5621 22.4593 42.8906 21.915V14.7656H49.4531ZM16.4062 3.51562C16.4062 2.86926 16.9318 2.34375 17.5781 2.34375H39.375C40.0214 2.34375 40.5469 2.86926 40.5469 3.51562V21.7969H35.1562V11.25C35.1562 9.31137 33.5793 7.73438 31.6406 7.73438H16.4062V3.51562ZM28.125 21.7969V10.0781H31.6406C32.287 10.0781 32.8125 10.6036 32.8125 11.25V21.7969H28.125ZM21.0938 21.7969V10.0781H25.7812V21.7969H21.0938ZM9.375 11.25C9.375 10.6036 9.90051 10.0781 10.5469 10.0781H18.75V21.7969H9.375V11.25ZM5.85938 14.7656H7.03125V21.7969H6.11023C4.17343 21.7969 2.34375 20.3943 2.34375 18.2812C2.34375 16.3426 3.92075 14.7656 5.85938 14.7656ZM41.7188 57.6562H5.85938C3.92075 57.6562 2.34375 56.0793 2.34375 54.1406V22.8964C3.39157 23.6769 4.70764 24.1406 6.11023 24.1406H41.7188C43.6574 24.1406 45.2344 25.7176 45.2344 27.6562V34.6875H37.0312C35.0926 34.6875 33.5156 36.2645 33.5156 38.2031V42.8906C33.5156 44.8293 35.0926 46.4062 37.0312 46.4062H45.2344V54.1406C45.2344 56.0793 43.6574 57.6562 41.7188 57.6562ZM52.9688 49.4531C52.9688 51.3918 51.3918 52.9688 49.4531 52.9688H47.5781V46.4062H52.9688V49.4531ZM56.4844 44.0625H37.0312C36.3849 44.0625 35.8594 43.537 35.8594 42.8906V38.2031C35.8594 37.5568 36.3849 37.0312 37.0312 37.0312H55.3125C56.1488 37.0312 56.9513 36.8124 57.6562 36.4037V42.8906C57.6562 43.537 57.1307 44.0625 56.4844 44.0625Z" fill="#222222"/>
<path d="M49.4531 39.375H44.0625C43.4152 39.375 42.8906 39.8996 42.8906 40.5469C42.8906 41.1942 43.4152 41.7188 44.0625 41.7188H49.4531C50.1004 41.7188 50.625 41.1942 50.625 40.5469C50.625 39.8996 50.1004 39.375 49.4531 39.375Z" fill="#222222"/>
</svg>
