<svg width="172" height="172" fill="none" xmlns="http://www.w3.org/2000/svg"><path d="M169.133 83.133h-5.805c-1.482-40.4-34.061-72.98-74.461-74.461V2.867A2.864 2.864 0 0086 0a2.864 2.864 0 00-2.867 2.867v5.805c-40.4 1.482-72.98 34.061-74.461 74.461H2.867A2.864 2.864 0 000 86a2.864 2.864 0 002.867 2.867h5.805c1.482 40.4 34.061 72.979 74.461 74.461v5.805A2.864 2.864 0 0086 172a2.864 2.864 0 002.867-2.867v-5.805c40.4-1.482 72.979-34.061 74.461-74.461h5.805A2.864 2.864 0 00172 86a2.864 2.864 0 00-2.867-2.867zm-80.266 74.462v-5.662A2.864 2.864 0 0086 149.067a2.864 2.864 0 00-2.867 2.866v5.662c-37.238-1.476-67.252-31.49-68.728-68.728h5.662A2.864 2.864 0 0022.933 86a2.864 2.864 0 00-2.866-2.867h-5.662c1.476-37.238 31.49-67.252 68.728-68.728v5.662A2.864 2.864 0 0086 22.933a2.864 2.864 0 002.867-2.866v-5.662c37.238 1.476 67.252 31.49 68.728 68.728h-5.662A2.864 2.864 0 00149.067 86a2.864 2.864 0 002.866 2.867h5.662c-1.476 37.238-31.49 67.252-68.728 68.728z" fill="#fff"/></svg>