<svg width="60" height="60" fill="none" xmlns="http://www.w3.org/2000/svg"><path d="M15.938 50.625H14.87a6.545 6.545 0 001.066-3.578v-2.358a4.67 4.67 0 00-.254-1.523l-2.9-8.431a2.819 2.819 0 00-1.908-1.97l1.767-6.602a2.78 2.78 0 00-1.115-3.04 2.628 2.628 0 00-.844-.4 2.653 2.653 0 00-.75-.105 2.781 2.781 0 00-2.706 2.038L2.225 40.031a4.732 4.732 0 00-.128 2.42l1.446 5.618c.137.532.207 1.08.207 1.63v.926h-.938a.937.937 0 00-.937.938v5.625a.937.937 0 00.938.937h13.124a.938.938 0 00.938-.937v-5.625a.938.938 0 00-.938-.938zm-10.58-3.028l-1.434-5.568a2.813 2.813 0 01.084-1.422l5.018-15.426a.927.927 0 011.432-.513.921.921 0 01.375 1.011l-1.936 7.227a2.786 2.786 0 00-1.64 2.55 2.58 2.58 0 00.093.729l1.697 6.34a.938.938 0 101.811-.486l-1.7-6.361a.91.91 0 01.594-1.093c.022-.008.111-.038.125-.04a.95.95 0 011.114.738l2.919 8.493c.101.293.153.602.152.913v2.358a4.674 4.674 0 01-.787 2.6l-.652.978H5.625V49.7c0-.71-.09-1.416-.266-2.103zM15 56.25H3.75V52.5H15v3.75zm28.125-4.688v5.625a.938.938 0 00.938.938h13.124a.938.938 0 00.938-.938v-5.625a.938.938 0 00-.938-.937h-.937V49.7c0-.552.07-1.102.207-1.636l1.446-5.618a4.732 4.732 0 00-.128-2.42l-5.002-15.37a2.78 2.78 0 00-2.701-2.034 2.653 2.653 0 00-.75.104 2.628 2.628 0 00-.844.401 2.78 2.78 0 00-1.116 3.04l1.763 6.602a2.819 2.819 0 00-1.909 1.969l-2.9 8.43a4.67 4.67 0 00-.254 1.52v2.358a6.553 6.553 0 001.067 3.579h-1.066a.938.938 0 00-.938.937zm11.25-1.862v.925h-6.998l-.652-.978a4.675 4.675 0 01-.788-2.6v-2.358c0-.311.052-.62.153-.914l2.919-8.492a.95.95 0 011.114-.74c.014 0 .103.034.124.041a.91.91 0 01.622.872.783.783 0 01-.027.221l-1.704 6.361a.938.938 0 001.811.486l1.697-6.34a2.58 2.58 0 00.094-.728 2.785 2.785 0 00-1.637-2.55l-1.935-7.228a.922.922 0 01.375-1.012.927.927 0 011.432.514l5.018 15.426c.15.459.178.949.084 1.422l-1.435 5.568a8.469 8.469 0 00-.267 2.104zM45 52.5h11.25v3.75H45V52.5zm.375-43.984l-15-6.562a.937.937 0 00-.75 0l-15 6.562a.937.937 0 00-.563.859v18.75a.938.938 0 00.512.835l15 7.632a.938.938 0 00.847.002l15-7.537a.937.937 0 00.517-.838V9.375a.938.938 0 00-.563-.859zM30 3.836l12.66 5.539L30 14.915l-3.29-1.44 5.007-2.191a.938.938 0 000-1.718l-4.023-1.754a.938.938 0 00-.75 0l-6.592 2.881-3.008-1.318L30 3.835zm-8.438 9.433l1.875.82v4.082l-1.875-.938V13.27zm1.125-1.552l4.628-2.022 1.678.732-4.618 2.024-1.688-.734zm-6.75-.909l3.75 1.641v5.364a.937.937 0 00.519.839l3.75 1.875a.939.939 0 001.357-.84v-4.78l3.75 1.64v17.68L15.938 27.55V10.808zm15 23.428V16.55l13.125-5.743V27.64l-13.124 6.596z" fill="#222"/><path d="M36.148 27.406l-3.757 1.888a.938.938 0 10.844 1.675l3.757-1.888a.938.938 0 10-.844-1.675zm-3.335-.087c.146 0 .29-.034.42-.1l3.703-1.86a.938.938 0 00-.844-1.676l-3.702 1.861a.938.938 0 00.423 1.775z" fill="#222"/></svg>