<svg width="60" height="60" fill="none" xmlns="http://www.w3.org/2000/svg"><path d="M54.14 20.156c.309 0 .611-.125.829-.343a1.18 1.18 0 00.343-.829c0-.308-.125-.61-.343-.828a1.18 1.18 0 00-.828-.343c-.309 0-.61.125-.829.343a1.18 1.18 0 00-.343.828c0 .309.125.61.343.829.218.218.52.343.829.343zM23.027 51.992h-.017a1.172 1.172 0 000 2.344h.017a1.172 1.172 0 000-2.344z" fill="#000"/><path d="M60 47.061V8.203a3.52 3.52 0 00-3.516-3.515H52.47v-.704A3.989 3.989 0 0048.486 0a3.989 3.989 0 00-3.984 3.984v.704H33.968v-.704A3.989 3.989 0 0029.985 0a3.989 3.989 0 00-3.984 3.984v.704H15.469v-.704A3.989 3.989 0 0011.484 0 3.989 3.989 0 007.5 3.984v.704H3.516A3.52 3.52 0 000 8.203v48.281A3.52 3.52 0 003.516 60H47.06c.324 0 .617-.131.829-.343L59.657 47.89c.212-.212.343-.505.343-.829zM46.845 3.984a1.642 1.642 0 013.282 0v5.743a1.642 1.642 0 01-3.281 0V3.984zm-18.5 0c0-.904.735-1.64 1.64-1.64.905 0 1.64.736 1.64 1.64v5.743c0 .904-.735 1.64-1.64 1.64-.905 0-1.64-.736-1.64-1.64V3.984zm-18.501 0c0-.904.736-1.64 1.64-1.64.905 0 1.641.736 1.641 1.64v5.743c0 .904-.736 1.64-1.64 1.64a1.642 1.642 0 01-1.641-1.64V3.984zm-7.5 52.5v-2.148H18.34a1.172 1.172 0 000-2.344H2.344V20.156h47.11a1.172 1.172 0 000-2.343H2.343v-9.61c0-.646.525-1.172 1.172-1.172H7.5v2.696a3.989 3.989 0 003.984 3.984 3.989 3.989 0 003.985-3.984V7.03H26v2.696a3.989 3.989 0 003.984 3.984 3.989 3.989 0 003.984-3.984V7.03H44.5v2.696a3.989 3.989 0 003.985 3.984 3.989 3.989 0 003.984-3.984V7.03h4.014c.646 0 1.172.526 1.172 1.172V45.89h-8.25a3.52 3.52 0 00-3.516 3.515v8.251H3.516a1.173 1.173 0 01-1.172-1.172zM48.234 56v-6.594c0-.646.525-1.172 1.171-1.172H56L48.233 56z" fill="#000"/><path d="M22.976 41.076v-8.089a2.286 2.286 0 00-2.284-2.284h-5.076a1.172 1.172 0 000 2.344h5.016v2.812h-5.016a1.172 1.172 0 000 2.344h5.016v2.813h-5.016a1.172 1.172 0 000 2.343h5.076a2.286 2.286 0 002.284-2.283zm10.172-8.029a1.172 1.172 0 000-2.344h-5.076a2.286 2.286 0 00-2.284 2.284v8.089a2.286 2.286 0 002.284 2.283h3.964a2.286 2.286 0 002.283-2.283v-2.933a2.286 2.286 0 00-2.283-2.284H28.13v-2.812h5.017zm-2.837 5.156h1.665v2.813h-3.844v-2.813h2.18zM43.38 35.86h-3.904v-2.813h5.016a1.172 1.172 0 000-2.344h-5.076a2.286 2.286 0 00-2.284 2.284v2.932a2.286 2.286 0 002.284 2.284h3.904v2.813h-5.016a1.172 1.172 0 000 2.343h5.076a2.286 2.286 0 002.284-2.283v-2.933a2.286 2.286 0 00-2.284-2.284z" fill="#000"/></svg>