<svg width="39" height="25" fill="none" xmlns="http://www.w3.org/2000/svg"><path d="M26.457 0A12.5 12.5 0 0019.5 2.105 12.501 12.501 0 0012.543 0C5.627 0 0 5.607 0 12.5 0 19.392 5.627 25 12.543 25a12.5 12.5 0 006.957-2.105A12.501 12.501 0 0026.457 25C33.373 25 39 19.392 39 12.5 39 5.607 33.373 0 26.457 0zm0 22.722c-3.734 0-7.01-2-8.803-4.981h1.319a1.14 1.14 0 001.142-1.139 1.14 1.14 0 00-1.142-1.139H16.64c-.14-.463-.25-.94-.324-1.428H20.8c.63 0 1.143-.51 1.143-1.139s-.512-1.139-1.143-1.139h-4.574c.035-.486.105-.963.207-1.428h2.538a1.14 1.14 0 001.143-1.138 1.14 1.14 0 00-1.142-1.14h-1.75a10.273 10.273 0 019.235-5.773c5.655 0 10.257 4.585 10.257 10.222s-4.602 10.222-10.258 10.222z" fill="#999"/></svg>