<svg width="88" height="25" fill="none" xmlns="http://www.w3.org/2000/svg"><path fill-rule="evenodd" clip-rule="evenodd" d="M63.493 11.294V25h7.589v-8.122h8.6c3.62-.027 6.695-2.347 7.854-5.584H63.493zM62.481 0c.442 5.602 5.724 10.025 12.175 10.025h13.196A8.511 8.511 0 0088 8.44C88 3.8 84.268.034 79.652 0H62.481zM51.25 9.892l.006-.013a.455.455 0 01.854.21v14.784h7.589V0h-7.59c-.961.032-2.049.74-2.453 1.61l-6.04 12.995a.505.505 0 01-.068.147l-.002.005a.505.505 0 01-.922-.29V0h-7.589v24.873h7.589v-.003c.952-.05 2.014-.75 2.412-1.607l6.198-13.337a.445.445 0 01.016-.034zm-28.338.425l-4.435 14.556h-5.46L8.58 10.308a.5.5 0 00-.991.098v14.467H0V0h8.454c1.396 0 2.86 1.087 3.267 2.426l3.694 12.121c.183.603.482.602.665 0l3.693-12.12C20.182 1.086 21.645 0 23.041 0h8.452v24.873h-7.588V10.4a.5.5 0 00-.993-.083z" fill="#999"/></svg>