<svg width="60" height="60" fill="none" xmlns="http://www.w3.org/2000/svg"><path d="M54.14 5.156h-5.585v-1.64A3.52 3.52 0 0045.039 0a3.52 3.52 0 00-3.516 3.516v1.64H21.836v-1.64A3.52 3.52 0 0018.32 0a3.52 3.52 0 00-3.515 3.516V5.2a1.17 1.17 0 00-.313-.044H9.823a5.866 5.866 0 00-5.86 5.86v19.96a1.172 1.172 0 002.344 0v-13.75h42.248a1.172 1.172 0 000-2.343H6.307v-3.867A3.52 3.52 0 019.823 7.5h4.67c.108 0 .212-.016.312-.043v1.508a3.52 3.52 0 003.515 3.515 3.52 3.52 0 003.516-3.515V7.5h19.687v1.465a3.52 3.52 0 003.516 3.515 3.52 3.52 0 003.516-3.515V7.5h5.586a3.52 3.52 0 013.515 3.516v44.53c0 1.164-.946 2.11-2.11 2.11a2.112 2.112 0 01-2.11-2.11v-3.031c0-.648-.525-1.172-1.172-1.172H38.633a1.172 1.172 0 100 2.343h12.46v1.86c0 .763.192 1.482.532 2.11H4.453a2.112 2.112 0 01-2.11-2.11v-1.86h26.23a1.172 1.172 0 100-2.343H16.864a9.588 9.588 0 003.348-7.28c0-5.3-4.31-9.61-9.609-9.61s-9.61 4.31-9.61 9.61a9.589 9.589 0 003.349 7.28h-3.17c-.647 0-1.172.524-1.172 1.172v3.032A4.458 4.458 0 004.453 60h51.093A4.459 4.459 0 0060 55.546v-44.53a5.867 5.867 0 00-5.86-5.86zM19.493 8.965a1.173 1.173 0 01-2.344 0v-5.45a1.173 1.173 0 012.344.001v5.449zm26.719 0c0 .646-.526 1.172-1.172 1.172a1.173 1.173 0 01-1.172-1.172v-5.45a1.173 1.173 0 012.344.001v5.449zM3.337 44.062c0-4.006 3.26-7.265 7.266-7.265s7.266 3.26 7.266 7.266-3.26 7.265-7.266 7.265-7.266-3.26-7.266-7.266z" fill="#222"/><path d="M54.88 15.226a1.18 1.18 0 00-.829-.343c-.308 0-.61.125-.828.343a1.18 1.18 0 00-.344.829c0 .308.126.61.344.828.218.218.52.344.828.344.308 0 .61-.126.829-.344a1.18 1.18 0 00.343-.828c0-.309-.125-.61-.343-.829zM34.998 51.685a1.18 1.18 0 00-.829-.342c-.308 0-.61.124-.828.342-.218.22-.343.52-.343.829 0 .31.125.61.343.83a1.178 1.178 0 001.657 0c.218-.22.343-.522.343-.83 0-.308-.125-.61-.343-.829zm-8.485-16.06a4.458 4.458 0 00-4.453 4.453 4.458 4.458 0 004.453 4.453 4.458 4.458 0 004.453-4.453 4.458 4.458 0 00-4.453-4.453zm0 6.563a2.112 2.112 0 01-2.11-2.11c0-1.163.947-2.11 2.11-2.11 1.163 0 2.11.947 2.11 2.11 0 1.163-.947 2.11-2.11 2.11zm10.937-6.563a4.458 4.458 0 00-4.452 4.453 4.458 4.458 0 004.453 4.453 4.458 4.458 0 004.453-4.453 4.458 4.458 0 00-4.453-4.453zm0 6.563a2.112 2.112 0 01-2.109-2.11c0-1.163.947-2.11 2.11-2.11 1.163 0 2.11.947 2.11 2.11 0 1.163-.947 2.11-2.11 2.11zm10.938-6.563a4.458 4.458 0 00-4.453 4.453 4.458 4.458 0 004.453 4.453 4.458 4.458 0 004.453-4.453 4.458 4.458 0 00-4.453-4.453zm0 6.563a2.112 2.112 0 01-2.11-2.11c0-1.163.947-2.11 2.11-2.11 1.163 0 2.11.947 2.11 2.11 0 1.163-.947 2.11-2.11 2.11zm-32.812-18.75a4.458 4.458 0 00-4.453 4.453 4.458 4.458 0 004.453 4.453 4.458 4.458 0 004.453-4.453 4.458 4.458 0 00-4.453-4.453zm0 6.562a2.112 2.112 0 01-2.11-2.11c0-1.163.947-2.109 2.11-2.109 1.163 0 2.11.947 2.11 2.11A2.112 2.112 0 0115.576 30zm21.874-6.562a4.458 4.458 0 00-4.452 4.453 4.458 4.458 0 004.453 4.453 4.458 4.458 0 004.453-4.453 4.458 4.458 0 00-4.453-4.453zm0 6.562a2.112 2.112 0 01-2.109-2.11c0-1.163.947-2.109 2.11-2.109 1.163 0 2.11.947 2.11 2.11A2.112 2.112 0 0137.451 30zm10.938-6.562a4.458 4.458 0 00-4.453 4.453 4.458 4.458 0 004.453 4.453 4.458 4.458 0 004.453-4.453 4.458 4.458 0 00-4.453-4.453zm0 6.562a2.112 2.112 0 01-2.11-2.11c0-1.163.947-2.109 2.11-2.109 1.163 0 2.11.947 2.11 2.11A2.112 2.112 0 0148.388 30zm-21.875-6.562a4.458 4.458 0 00-4.453 4.453 4.458 4.458 0 004.453 4.453 4.458 4.458 0 004.453-4.453 4.458 4.458 0 00-4.453-4.453zm0 6.562a2.112 2.112 0 01-2.11-2.11c0-1.163.947-2.109 2.11-2.109 1.163 0 2.11.947 2.11 2.11A2.112 2.112 0 0126.513 30zM14.777 41.206a1.172 1.172 0 00-1.657 0l-3.816 3.817L8 43.719a1.172 1.172 0 10-1.658 1.657l2.133 2.133a1.172 1.172 0 001.657 0l4.646-4.645c.457-.458.457-1.2 0-1.657z" fill="#222"/></svg>