<svg width="82" height="82" fill="none" xmlns="http://www.w3.org/2000/svg"><path d="M34.445 73.34a1.612 1.612 0 00-1.133-.469c-.42 0-.834.171-1.132.47a1.61 1.61 0 00-.47 1.132c0 .42.172.834.47 1.132.298.298.711.47 1.133.47.42 0 .834-.172 1.132-.47.298-.298.47-.711.47-1.132 0-.422-.172-.835-.47-1.133zM55.956 4.468H45.903a1.602 1.602 0 000 3.203h10.053a1.602 1.602 0 000-3.203z" fill="#D83A3F"/><path d="M72.71 36.195c.885 0 1.603-.717 1.603-1.601V5.79A5.797 5.797 0 0068.522 0H33.336a5.797 5.797 0 00-5.79 5.79v11.06A41.316 41.316 0 0016.5 30.723a41.3 41.3 0 00-4.17 18.032v16.748h-1.44a3.207 3.207 0 00-3.203 3.203v11.691a1.602 1.602 0 003.204 0v-11.69h28.416v11.691a1.602 1.602 0 003.204 0v-7.046h26.011a5.797 5.797 0 005.79-5.79V47.906a1.602 1.602 0 00-3.203 0v11.831H47.098l5.093-7.177a5.568 5.568 0 00.408-5.8 5.569 5.569 0 00-4.965-3.023c-1.195 0-2.38.393-3.34 1.107L34.18 52.38a2.15 2.15 0 01-3.43-1.722v-38.48h40.36v22.416c0 .884.717 1.601 1.6 1.601zm-1.6 26.746v4.62a2.59 2.59 0 01-2.588 2.587H42.511v-1.441a3.197 3.197 0 00-1.297-2.568 15.705 15.705 0 003.566-3.2l.064.002h26.265zM32.896 56.01a5.386 5.386 0 003.197-1.06l10.114-7.535c.41-.305.916-.473 1.425-.473.91 0 1.703.483 2.12 1.291a2.347 2.347 0 01-.174 2.475l-6.759 9.524a12.538 12.538 0 01-10.208 5.273H15.533V48.756c0-10.62 4.34-20.528 12.014-27.67v29.572c0 2.95 2.4 5.35 5.35 5.35zM30.75 8.975V5.79a2.59 2.59 0 012.587-2.587h35.185A2.59 2.59 0 0171.11 5.79v3.185H30.75z" fill="#D83A3F"/><path d="M52.062 65.276a1.613 1.613 0 00-1.132-.469 1.61 1.61 0 00-1.133.47c-.297.297-.469.71-.469 1.132a1.606 1.606 0 001.602 1.602 1.606 1.606 0 001.601-1.602 1.61 1.61 0 00-.47-1.133zM63 25.43a3.518 3.518 0 00-2.738-1.3h-4.376l-1.356-2.349a1.602 1.602 0 10-2.774 1.602l.431.747h-2.515l.432-.747a1.601 1.601 0 10-2.774-1.602l-1.356 2.35h-4.377a3.518 3.518 0 00-2.738 1.3 3.519 3.519 0 00-.721 2.943l2.107 10.234a3.545 3.545 0 003.459 2.82h14.452a3.545 3.545 0 003.459-2.82l2.107-10.234A3.519 3.519 0 0063 25.431zm-2.416 2.299L58.478 37.96a.33.33 0 01-.322.263H43.704a.33.33 0 01-.322-.262l-2.107-10.233a.32.32 0 01.067-.274.32.32 0 01.255-.121h2.527l-.909 1.574a1.601 1.601 0 102.774 1.602l1.834-3.176h6.214l1.834 3.176a1.6 1.6 0 102.774-1.602l-.91-1.575h2.527c.13 0 .21.066.255.122a.32.32 0 01.067.274zm13.259 12.139a1.613 1.613 0 00-1.132-.47c-.421 0-.835.172-1.132.47-.298.298-.47.71-.47 1.132 0 .421.172.834.47 1.132.297.298.71.47 1.132.47.421 0 .834-.172 1.132-.47.298-.298.47-.71.47-1.132 0-.421-.172-.834-.47-1.132z" fill="#D83A3F"/></svg>