<svg width="82" height="82" fill="none" xmlns="http://www.w3.org/2000/svg"><path d="M75 0H14.846a6.546 6.546 0 00-6.539 6.538V26.92L.846 34.382a1.31 1.31 0 00-.384.925v45.769h2.616V35.848l5.23-5.23v3.381c0 .722.586 1.308 1.308 1.308h15.526a5.24 5.24 0 01-5.065 3.923h-5.23c-.722 0-1.308.586-1.308 1.308 0 4.399-3.447 7.846-7.846 7.846v2.615c.908 0 1.781-.119 2.615-.327v18.635a6.546 6.546 0 006.539 6.538h3.923v5.23h2.615v-5.23h20.923v2.615c0 .347.137.68.383.925L45.306 82l1.85-1.849-2.233-2.232v-8.071l2.615-2.618v6h2.616V37.266a1.962 1.962 0 013.923 0v29.425h2.615V55.573a1.962 1.962 0 013.923 0v11.118h2.615V55.573a1.962 1.962 0 013.923 0v11.118h2.616l.005-11.12a1.96 1.96 0 011.959-1.958c1.08 0 1.959.879 1.959 1.959v25.504h2.615v-5.363c2.98-.608 5.23-3.25 5.23-6.406V6.538A6.546 6.546 0 0075 0zm3.922 69.306c0 1.703-1.097 3.142-2.615 3.683V55.573A4.579 4.579 0 0071.733 51a4.552 4.552 0 00-3.27 1.386 4.556 4.556 0 00-6.541-.004A4.565 4.565 0 0058.653 51c-.705 0-1.364.173-1.96.458V37.266a4.58 4.58 0 00-4.58-4.574 4.58 4.58 0 00-4.574 4.574v26.263l-4.848 4.853a1.311 1.311 0 00-.382.924v3.924H14.847a3.928 3.928 0 01-3.923-3.924V49.63a10.302 10.302 0 005.153-7.785h4c4.327 0 7.846-3.518 7.846-7.846 0-.721-.585-1.307-1.307-1.307H10.924V6.538a3.928 3.928 0 013.923-3.923h60.152a3.928 3.928 0 013.924 3.923v62.768z" fill="#D83A3F"/><path d="M37.077 5.23H17.462a1.31 1.31 0 00-1.308 1.308v6.539c0 .722.586 1.307 1.308 1.307h19.615c.722 0 1.308-.585 1.308-1.307V6.538c0-.721-.586-1.307-1.308-1.307zm-1.308 6.539h-17V7.846h17v3.923zM72.384 5.23H52.77a1.31 1.31 0 00-1.308 1.308v6.539c0 .722.586 1.307 1.308 1.307h19.615c.722 0 1.308-.585 1.308-1.307V6.538c0-.721-.586-1.307-1.308-1.307zm-1.308 6.539h-17V7.846h17v3.923zM37.077 44.46H17.462a1.31 1.31 0 00-1.308 1.308v6.539c0 .722.586 1.307 1.308 1.307h19.615c.722 0 1.308-.585 1.308-1.307v-6.539c0-.721-.586-1.307-1.308-1.307zM35.769 51h-17v-3.924h17V51zM46.23 5.23h-2.615v24.846h2.616V5.231zM30.539 17H16.154v2.615H30.54V17zm7.846 0h-3.923v2.615h3.923V17zm-7.846 5.23H16.154v2.616H30.54V22.23zm7.846 0h-3.923v2.616h3.923V22.23zm-7.846 5.231H16.154v2.615H30.54v-2.615zm7.846 0h-3.923v2.615h3.923v-2.615zm0 5.231h-3.923v2.615h3.923v-2.615zm0 5.23h-3.923v2.616h3.923v-2.616zM30.539 56.23H16.154v2.615H30.54V56.23zm7.846 0h-3.923v2.615h3.923V56.23zm-7.846 5.23H16.154v2.616H30.54V61.46zm7.846 0h-3.923v2.616h3.923V61.46zm-7.846 5.231H16.154v2.615H30.54v-2.615zm7.846 0h-3.923v2.615h3.923v-2.615zM65.846 17H51.46v2.615h14.385V17zm7.846 0h-3.923v2.615h3.923V17zm-7.846 5.23H51.46v2.616h14.385V22.23zm7.846 0h-3.923v2.616h3.923V22.23zm-7.846 5.231H51.46v2.615h14.385v-2.615zm7.846 0h-3.923v2.615h3.923v-2.615zm-7.846 5.231h-6.539v2.615h6.538v-2.615zm7.846 0h-3.923v2.615h3.923v-2.615zm-7.846 5.23h-6.539v2.616h6.538v-2.616zm7.846 0h-3.923v2.616h3.923v-2.616zm-7.846 5.231h-6.539v2.615h6.538v-2.615zm7.846 0h-3.923v2.615h3.923v-2.615z" fill="#D83A3F"/></svg>