<svg width="82" height="82" fill="none" xmlns="http://www.w3.org/2000/svg"><path d="M60.684 20.974c1.958-2.496 2.3-5.64.99-9.092-.936-2.466-2.401-4.233-2.463-4.307a1.356 1.356 0 00-2.082 1.738c.066.08 4.712 5.79 1.42 9.987-4.739 6.043.315 14.013.532 14.35a1.355 1.355 0 102.278-1.473c-.042-.065-4.217-6.688-.675-11.203zm9.102 0c1.958-2.496 2.3-5.64.99-9.092-.937-2.466-2.402-4.233-2.464-4.307a1.356 1.356 0 00-2.082 1.738c.048.057 4.72 5.782 1.421 9.987-4.74 6.043.315 14.013.532 14.35a1.355 1.355 0 001.875.402c.629-.407.81-1.246.403-1.875-.042-.065-4.217-6.688-.675-11.203zm-56.94.628c1.958-2.496 2.3-5.64.99-9.092-.937-2.465-2.402-4.233-2.464-4.307A1.356 1.356 0 009.29 9.941c.048.057 4.72 5.782 1.422 9.987-4.74 6.043.313 14.013.531 14.35a1.355 1.355 0 102.277-1.473c-.041-.064-4.217-6.688-.674-11.203zm9.102 0c1.958-2.496 2.3-5.64.99-9.092-.936-2.465-2.401-4.233-2.463-4.307a1.356 1.356 0 00-2.082 1.738c.048.057 4.72 5.782 1.421 9.987-4.74 6.043.313 14.013.53 14.35a1.355 1.355 0 102.278-1.473c-.041-.064-4.217-6.688-.674-11.203z" fill="#D83A3F"/><path d="M77.498 64.21h-2.876C73.947 47.295 60.7 33.559 43.99 32.109v-1.381a5.633 5.633 0 002.75-4.857 5.685 5.685 0 00-5.678-5.678h-.123a5.685 5.685 0 00-5.678 5.678 5.634 5.634 0 002.75 4.857v1.38C21.3 33.559 8.052 47.295 7.377 64.212H4.502A4.507 4.507 0 000 68.71v1.696a4.508 4.508 0 004.501 4.504H77.5a4.507 4.507 0 004.5-4.503v-1.695a4.507 4.507 0 00-4.502-4.501zM37.972 25.87a2.97 2.97 0 012.966-2.966h.123a2.97 2.97 0 012.966 2.966 2.948 2.948 0 01-1.89 2.755c-.519.203-.86.704-.86 1.262v2.094h-.555v-2.094c0-.558-.342-1.058-.86-1.262a2.949 2.949 0 01-1.89-2.755zm39.526 46.329H4.501c-.987 0-1.79-.804-1.79-1.792V68.71c0-.986.803-1.788 1.79-1.788h2.23l.036.002h48.697a1.356 1.356 0 000-2.712h-45.37c.71-16.358 14.205-29.455 30.72-29.52h.372c16.514.065 30.01 13.162 30.72 29.52h-7.671a1.356 1.356 0 000 2.712l10.471-.002h2.792c.987 0 1.79.802 1.79 1.788v1.696c0 .988-.803 1.792-1.79 1.792z" fill="#D83A3F"/></svg>