<svg width="82" height="82" fill="none" xmlns="http://www.w3.org/2000/svg"><g clip-path="url(#clip0)" fill="#D83A3F"><path d="M81.817 56.34a5.432 5.432 0 00-4.433-3.934v-31.16H80.1c.75 0 1.358-.607 1.358-1.357V6.313c0-.75-.608-1.357-1.358-1.357H20.364c-.75 0-1.357.607-1.357 1.357V19.89c0 .75.607 1.358 1.357 1.358h2.715V48.4h-1.357c-3.37-.008-6.67.958-9.503 2.782v-6.855c0-.75-.608-1.357-1.358-1.357H1.358c-.75 0-1.358.607-1.358 1.357v31.226c0 .75.608 1.357 1.358 1.357h9.503c.75 0 1.358-.608 1.358-1.357v-6.854a17.5 17.5 0 009.503 2.78h22.292a17.877 17.877 0 004.574-.602l29.393-7.874a5.452 5.452 0 003.836-6.661zM21.722 7.67h57.02v10.862h-57.02V7.67zm4.073 13.577h48.874V52.64l-15.756 4.225a5.458 5.458 0 00-3.591-3.153l-18.293-4.906a12.337 12.337 0 00-3.156-.407h-8.078V21.247zM9.503 74.194H2.715v-28.51h6.788v28.51zm67.774-13.816l-29.389 7.874a15.04 15.04 0 01-3.874.511H21.722a14.832 14.832 0 01-8.96-2.987l-.543-.406V54.508l.543-.408a14.823 14.823 0 018.96-2.986h12.15a9.593 9.593 0 012.46.318l18.286 4.903a2.738 2.738 0 011.995 2.337c.014.056.032.111.054.165a1.334 1.334 0 00-.035.178c0 .22-.029.44-.09.653a2.715 2.715 0 01-2.617 2.008 2.677 2.677 0 01-.707-.09l-11.54-3.094a1.358 1.358 0 10-.703 2.621l11.54 3.096c.46.121.935.182 1.413.182a5.42 5.42 0 005.225-3.989c.075-.272.126-.55.153-.832l16.55-4.438c.119-.03.247-.06.368-.08a2.715 2.715 0 013.06 2.7 2.715 2.715 0 01-2.007 2.626z"/><path d="M43.444 26.677H57.02a1.358 1.358 0 000-2.715H43.444a1.357 1.357 0 100 2.715z"/></g><defs><clipPath id="clip0"><path fill="#fff" d="M0 0h82v82H0z"/></clipPath></defs></svg>