<svg width="80" height="25" fill="none" xmlns="http://www.w3.org/2000/svg"><path d="M32.032.416l-4.065 24.22h6.502L38.54.416h-6.507zm-9.517.027l-6.37 16.518-.678-2.494c-1.256-3.005-4.822-7.321-9.008-10.041l5.824 20.198 6.88-.011L29.403.438l-6.888.005z" fill="#999"/><path d="M12.998 2.176C12.62.701 11.525.261 10.165.21H.084L0 .69c7.845 1.932 13.037 6.587 15.19 12.185l-2.192-10.7zM51.717 5.06c2.128-.035 3.67.437 4.867.926l.587.28.88-5.249C56.763.527 54.744 0 52.226 0 45.8 0 41.27 3.285 41.236 7.993c-.042 3.479 3.226 5.421 5.695 6.58 2.533 1.19 3.383 1.945 3.371 3.006-.02 1.621-2.02 2.365-3.888 2.365-2.604 0-3.987-.365-6.123-1.268l-.838-.387-.915 5.42c1.522.678 4.33 1.26 7.245 1.291 6.836 0 11.278-3.246 11.325-8.277.028-2.752-1.706-4.852-5.464-6.575-2.275-1.124-3.666-1.871-3.653-3.005 0-1.007 1.18-2.084 3.726-2.084zM74.739.443h-5.025c-1.56 0-2.72.431-3.406 2.01L56.653 24.65h6.828s1.114-2.985 1.367-3.638c.747 0 7.382.01 8.327.01.194.845.793 3.628.793 3.628H80L74.739.443zm-8.02 15.611c.535-1.39 2.59-6.769 2.59-6.769-.034.066.53-1.4.867-2.312l.438 2.088 1.507 6.993H66.72z" fill="#999"/></svg>