<svg width="60" height="60" fill="none" xmlns="http://www.w3.org/2000/svg"><path d="M39.375 39.375a1.172 1.172 0 10.001 2.345 1.172 1.172 0 00-.001-2.345zm-15.938-1.172a1.173 1.173 0 010-2.344c.416 0 .854.212 1.268.613a1.172 1.172 0 101.63-1.684c-.595-.576-1.19-.902-1.726-1.08v-1.364a1.172 1.172 0 10-2.344 0v1.373a3.521 3.521 0 00-2.343 3.314 3.52 3.52 0 003.515 3.516 1.173 1.173 0 010 2.344c-.5 0-1.041-.315-1.522-.887a1.171 1.171 0 10-1.794 1.508c.627.745 1.364 1.265 2.145 1.526v1.368a1.172 1.172 0 102.343 0v-1.373a3.522 3.522 0 002.344-3.314 3.52 3.52 0 00-3.516-3.516zm-9.374-18.75a1.17 1.17 0 001.171-1.172v-4.687a1.172 1.172 0 10-2.343 0v4.687a1.17 1.17 0 001.171 1.172z" fill="#222"/><path d="M55.313 27.656v-9.375c0-3.23-2.629-5.86-5.86-5.86h-6.562V3.517A3.52 3.52 0 0039.375 0H17.578a3.52 3.52 0 00-3.515 3.516v4.218h-3.516A3.52 3.52 0 007.03 11.25v1.172H5.86A5.866 5.866 0 000 18.282V54.14C0 57.37 2.628 60 5.86 60h35.859a5.869 5.869 0 005.741-4.688h1.993a5.866 5.866 0 005.86-5.859v-3.047h1.171A3.52 3.52 0 0060 42.891V32.344a4.693 4.693 0 00-4.688-4.688zm2.343 4.688a2.343 2.343 0 01-2.343 2.343V30a2.346 2.346 0 012.343 2.344zm-8.203-17.578a3.52 3.52 0 013.516 3.515v16.407h-5.39v-7.032a5.869 5.869 0 00-4.688-5.741v-7.15h6.562zM16.406 3.516c0-.647.526-1.172 1.172-1.172h21.797c.646 0 1.172.525 1.172 1.172v18.28h-5.39V11.25a3.52 3.52 0 00-3.516-3.516H16.406V3.516zm11.719 18.28V10.079h3.516c.646 0 1.172.526 1.172 1.172v10.547h-4.688zm-7.031 0V10.079h4.687v11.719h-4.687zM9.375 11.25c0-.646.526-1.172 1.172-1.172h8.203v11.719H9.375V11.25zm-3.516 3.516h1.172v7.03h-.92c-1.938 0-3.767-1.402-3.767-3.515a3.52 3.52 0 013.515-3.515zm35.86 42.89H5.859a3.52 3.52 0 01-3.515-3.515V22.896a6.311 6.311 0 003.766 1.245h35.61a3.52 3.52 0 013.515 3.515v7.032h-8.203a3.52 3.52 0 00-3.515 3.515v4.688a3.52 3.52 0 003.515 3.515h8.203v7.735a3.52 3.52 0 01-3.515 3.515zm11.25-8.203a3.52 3.52 0 01-3.516 3.516h-1.875v-6.563h5.39v3.047zm3.515-5.39H37.031a1.173 1.173 0 01-1.172-1.172v-4.688c0-.646.526-1.172 1.172-1.172h18.282c.836 0 1.638-.219 2.343-.627v6.487c0 .646-.525 1.172-1.172 1.172z" fill="#222"/><path d="M49.453 39.375h-5.39a1.172 1.172 0 100 2.344h5.39a1.172 1.172 0 100-2.344z" fill="#222"/></svg>