<svg width="152" height="44" fill="none" xmlns="http://www.w3.org/2000/svg"><path d="M54.25 2.908V17h2.95v-4.443h2.626c2.969 0 5.03-1.934 5.03-4.825 0-2.9-1.983-4.824-4.874-4.824H54.25zm2.95 2.334h2c1.68 0 2.666.899 2.666 2.5 0 1.612-.986 2.51-2.685 2.51h-1.983v-5.01zm21.886 9.317h-6.387v-3.555h6.026V8.738h-6.026V5.34h6.387V2.908H69.75V17h9.336v-2.441zM99.283 17V2.908h-3.408l-4.004 10.117h-.078L87.779 2.908h-3.408V17h2.627V7.488h.068L90.904 17h1.846l3.838-9.512h.068V17h2.627zm11.858-14.336c-4.17 0-6.797 2.803-6.797 7.295 0 4.482 2.617 7.275 6.797 7.275 4.179 0 6.797-2.793 6.797-7.275 0-4.492-2.618-7.295-6.797-7.295zm0 2.461c2.304 0 3.789 1.875 3.789 4.834 0 2.95-1.475 4.814-3.789 4.814-2.305 0-3.78-1.865-3.78-4.814 0-2.959 1.475-4.834 3.78-4.834zM135.234 17V2.908h-2.949v5.723h-6.347V2.908h-2.95V17h2.95v-5.938h6.347V17h2.949zm11.819 0V5.34h4.072V2.908h-11.104V5.34h4.083V17h2.949zm-87.022 9.703c-3.838 0-6.279 2.813-6.279 7.246 0 4.453 2.432 7.256 6.28 7.256 3.847 0 6.279-2.803 6.279-7.256 0-4.433-2.442-7.246-6.28-7.246zm0 .723c3.35 0 5.488 2.539 5.488 6.523 0 3.994-2.138 6.533-5.488 6.533-3.35 0-5.488-2.539-5.488-6.533 0-3.984 2.129-6.523 5.488-6.523zM73.18 41V27.621h4.931v-.713H67.467v.713h4.941V41h.772zm9.379-6.953h1.699c2.832 0 4.258 1.152 4.258 3.125 0 1.914-1.592 3.36-4.073 3.36-2.265 0-3.935-1.378-4.062-3.057h-.762c.127 2.09 2.08 3.76 4.815 3.76 2.939 0 4.873-1.768 4.873-4.044 0-1.982-1.29-3.33-3.487-3.506v-.058c1.914-.371 3.047-1.65 3.047-3.34 0-2.031-1.719-3.623-4.306-3.623-2.52 0-4.22 1.504-4.444 3.623h.752c.225-1.69 1.631-2.91 3.672-2.91 2.188 0 3.545 1.299 3.545 2.95 0 1.776-1.455 3.017-3.848 3.017h-1.68v.703zm15.414-7.344c-3.838 0-6.28 2.813-6.28 7.246 0 4.453 2.432 7.256 6.28 7.256 3.847 0 6.279-2.803 6.279-7.256 0-4.433-2.441-7.246-6.28-7.246zm0 .723c3.349 0 5.488 2.539 5.488 6.523 0 3.994-2.139 6.533-5.488 6.533-3.35 0-5.489-2.539-5.489-6.533 0-3.984 2.13-6.523 5.489-6.523zM112.146 41c2.959 0 4.756-1.455 4.756-3.76 0-2.04-1.523-3.33-3.515-3.545v-.058c1.679-.322 2.773-1.621 2.773-3.301 0-2.041-1.66-3.428-4.111-3.428h-4.697V41h4.794zm-4.023-13.389h3.809c2.099 0 3.447 1.084 3.447 2.784 0 1.855-1.426 3.007-3.633 3.007h-3.623v-5.79zm0 12.686v-6.201h3.75c2.676 0 4.248 1.181 4.248 3.125 0 1.894-1.504 3.076-4.043 3.076h-3.955zm21.586.703h.771V26.908h-.771l-8.994 12.813h-.078V26.908h-.762V41h.762l9.004-12.803h.068V41zm5.238-7.46v-6.632h-.771V41h.771v-7.012h.049L142.838 41h1.113l-8.154-7.285 7.598-6.807h-1.045l-7.354 6.631h-.049zM9.087 30.989L30.989 9.087a2.258 2.258 0 000-3.192L29.01 3.917 27.734 2.64 25.754.66a2.257 2.257 0 00-3.191 0L.66 22.564a2.257 2.257 0 000 3.191l5.234 5.235c.882.88 2.31.88 3.192 0zM30.505 2.42L29.23 1.144l-.813.812 1.277 1.277.812-.813zm9.589 33.3L29.6 25.226 25.226 29.6 35.72 40.094a3.093 3.093 0 004.374-4.374z" fill="#222"/><path d="M26.747 25.47l-1.812-1.812c-1.351-1.35-3.883-1.019-5.642.74L9.034 34.659a2.71 2.71 0 01-3.83 0l-1.552-1.553a2.709 2.709 0 01-.37-3.362l-1.294-1.295a4.518 4.518 0 00.387 5.935l1.553 1.552a4.518 4.518 0 006.383 0l10.258-10.258c1.129-1.129 2.534-1.296 3.09-.74l1.811 1.811 1.277-1.278z" fill="#222"/></svg>