<svg width="152" height="44" viewBox="0 0 152 44" fill="none" xmlns="http://www.w3.org/2000/svg">
<path d="M54.25 2.9082V17H57.1992V12.5566H59.8262C62.7949 12.5566 64.8555 10.623 64.8555 7.73242C64.8555 4.83203 62.873 2.9082 59.9824 2.9082H54.25ZM57.1992 5.24219H59.2012C60.8809 5.24219 61.8672 6.14062 61.8672 7.74219C61.8672 9.35352 60.8809 10.252 59.1816 10.252H57.1992V5.24219ZM79.0859 14.5586H72.6992V11.0039H78.7246V8.73828H72.6992V5.33984H79.0859V2.9082H69.75V17H79.0859V14.5586ZM99.2832 17V2.9082H95.875L91.8711 13.0254H91.793L87.7793 2.9082H84.3711V17H86.998V7.48828H87.0664L90.9043 17H92.75L96.5879 7.48828H96.6562V17H99.2832ZM111.141 2.66406C106.971 2.66406 104.344 5.4668 104.344 9.95898C104.344 14.4414 106.961 17.2344 111.141 17.2344C115.32 17.2344 117.938 14.4414 117.938 9.95898C117.938 5.4668 115.32 2.66406 111.141 2.66406ZM111.141 5.125C113.445 5.125 114.93 7 114.93 9.95898C114.93 12.9082 113.455 14.7734 111.141 14.7734C108.836 14.7734 107.361 12.9082 107.361 9.95898C107.361 7 108.836 5.125 111.141 5.125ZM135.234 17V2.9082H132.285V8.63086H125.938V2.9082H122.988V17H125.938V11.0625H132.285V17H135.234ZM147.053 17V5.33984H151.125V2.9082H140.021V5.33984H144.104V17H147.053Z" fill="#222222"/>
<path d="M60.0312 26.7031C56.1934 26.7031 53.752 29.5156 53.752 33.9492C53.752 38.4023 56.1836 41.2051 60.0312 41.2051C63.8789 41.2051 66.3105 38.4023 66.3105 33.9492C66.3105 29.5156 63.8691 26.7031 60.0312 26.7031ZM60.0312 27.4258C63.3809 27.4258 65.5195 29.9648 65.5195 33.9492C65.5195 37.9434 63.3809 40.4824 60.0312 40.4824C56.6816 40.4824 54.543 37.9434 54.543 33.9492C54.543 29.9648 56.6719 27.4258 60.0312 27.4258ZM73.1797 41V27.6211H78.1113V26.9082H67.4668V27.6211H72.4082V41H73.1797ZM82.5586 34.0469H84.2578C87.0898 34.0469 88.5156 35.1992 88.5156 37.1719C88.5156 39.0859 86.9238 40.5312 84.4434 40.5312C82.1777 40.5312 80.5078 39.1543 80.3809 37.4746H79.6191C79.7461 39.5645 81.6992 41.2344 84.4336 41.2344C87.373 41.2344 89.3066 39.4668 89.3066 37.1914C89.3066 35.209 88.0176 33.8613 85.8203 33.6855V33.627C87.7344 33.2559 88.8672 31.9766 88.8672 30.2871C88.8672 28.2559 87.1484 26.6641 84.5605 26.6641C82.041 26.6641 80.3418 28.168 80.1172 30.2871H80.8691C81.0938 28.5977 82.5 27.377 84.541 27.377C86.7285 27.377 88.0859 28.6758 88.0859 30.3262C88.0859 32.1035 86.6309 33.3438 84.2383 33.3438H82.5586V34.0469ZM97.9727 26.7031C94.1348 26.7031 91.6934 29.5156 91.6934 33.9492C91.6934 38.4023 94.125 41.2051 97.9727 41.2051C101.82 41.2051 104.252 38.4023 104.252 33.9492C104.252 29.5156 101.811 26.7031 97.9727 26.7031ZM97.9727 27.4258C101.322 27.4258 103.461 29.9648 103.461 33.9492C103.461 37.9434 101.322 40.4824 97.9727 40.4824C94.623 40.4824 92.4844 37.9434 92.4844 33.9492C92.4844 29.9648 94.6133 27.4258 97.9727 27.4258ZM112.146 41C115.105 41 116.902 39.5449 116.902 37.2402C116.902 35.1992 115.379 33.9102 113.387 33.6953V33.6367C115.066 33.3145 116.16 32.0156 116.16 30.3359C116.16 28.2949 114.5 26.9082 112.049 26.9082H107.352V41H112.146ZM108.123 27.6113H111.932C114.031 27.6113 115.379 28.6953 115.379 30.3945C115.379 32.25 113.953 33.4023 111.746 33.4023H108.123V27.6113ZM108.123 40.2969V34.0957H111.873C114.549 34.0957 116.121 35.2773 116.121 37.2207C116.121 39.1152 114.617 40.2969 112.078 40.2969H108.123ZM129.709 41H130.48V26.9082H129.709L120.715 39.7207H120.637V26.9082H119.875V41H120.637L129.641 28.1973H129.709V41ZM134.947 33.5391V26.9082H134.176V41H134.947V33.9883H134.996L142.838 41H143.951L135.797 33.7148L143.395 26.9082H142.35L134.996 33.5391H134.947Z" fill="#222222"/>
<path d="M9.08686 30.9887L30.9887 9.08686C31.8697 8.20582 31.8697 6.77679 30.9887 5.89516L29.0102 3.91652L27.7337 2.64L25.7544 0.660783C24.8734 -0.220261 23.4444 -0.220261 22.5627 0.660783L0.660783 22.5627C-0.220261 23.4438 -0.220261 24.8728 0.660783 25.7544L5.89505 30.9887C6.77679 31.8699 8.20512 31.8699 9.08686 30.9887Z" fill="#222222"/>
<path d="M30.5054 2.4203L29.2289 1.14378L28.4165 1.95609L29.6931 3.2326L30.5054 2.4203Z" fill="#222222"/>
<path d="M40.0942 35.7202L29.6001 25.2261L25.2261 29.6001L35.7202 40.0942C36.9281 41.3019 38.8864 41.3019 40.0942 40.0942C41.3019 38.8864 41.3019 36.928 40.0942 35.7202Z" fill="#222222"/>
<path d="M26.747 25.4703L24.935 23.6583C23.5836 22.3071 21.0525 22.6391 19.2927 24.3989L9.03403 34.6582C7.97801 35.7142 6.26039 35.7142 5.20437 34.6582L3.65154 33.1053C2.73958 32.1934 2.61926 30.7894 3.2827 29.743L1.98777 28.448C0.631117 30.2161 0.75746 32.7645 2.37491 34.3826L3.92773 35.9354C5.68751 37.6952 8.55078 37.6952 10.3106 35.9354L20.5692 25.6767C21.6975 24.5484 23.1028 24.3806 23.6583 24.9361L25.4703 26.7481L26.747 25.4703Z" fill="#222222"/>
</svg>
